{
	"asset":{
		"generator":"Khronos glTF Blender I/O v5.2.40",
		"version":"2.0"
	},
	"scene":0,
	"scenes":[
		{
			"name":"Scene",
			"nodes":[
				0
			]
		}
	],
	"nodes":[
		{
			"mesh":0,
			"name":"bunker_large"
		}
	],
	"materials":[
		{
			"doubleSided":true,
			"name":"steel",
			"pbrMetallicRoughness":{
				"baseColorFactor":[
					0.800000011920929,
					0.800000011920929,
					0.800000011920929,
					1
				],
				"metallicFactor":0,
				"roughnessFactor":0.5
			}
		},
		{
			"doubleSided":true,
			"name":"concrete",
			"pbrMetallicRoughness":{
				"baseColorFactor":[
					0.800000011920929,
					0.800000011920929,
					0.800000011920929,
					1
				],
				"metallicFactor":0,
				"roughnessFactor":0.5
			}
		},
		{
			"doubleSided":true,
			"name":"slot",
			"pbrMetallicRoughness":{
				"baseColorFactor":[
					0.800000011920929,
					0.800000011920929,
					0.800000011920929,
					1
				],
				"metallicFactor":0,
				"roughnessFactor":0.5
			}
		},
		{
			"doubleSided":true,
			"name":"rust",
			"pbrMetallicRoughness":{
				"baseColorFactor":[
					0.800000011920929,
					0.800000011920929,
					0.800000011920929,
					1
				],
				"metallicFactor":0,
				"roughnessFactor":0.5
			}
		}
	],
	"meshes":[
		{
			"name":"Cube.016",
			"primitives":[
				{
					"attributes":{
						"POSITION":0,
						"NORMAL":1,
						"TEXCOORD_0":2,
						"COLOR_0":3
					},
					"indices":4,
					"material":0
				},
				{
					"attributes":{
						"POSITION":5,
						"NORMAL":6,
						"TEXCOORD_0":7,
						"COLOR_0":8
					},
					"indices":9,
					"material":1
				},
				{
					"attributes":{
						"POSITION":10,
						"NORMAL":11,
						"TEXCOORD_0":12,
						"COLOR_0":13
					},
					"indices":14,
					"material":2
				},
				{
					"attributes":{
						"POSITION":15,
						"NORMAL":16,
						"TEXCOORD_0":17,
						"COLOR_0":18
					},
					"indices":19,
					"material":3
				}
			]
		}
	],
	"accessors":[
		{
			"bufferView":0,
			"componentType":5126,
			"count":16858,
			"max":[
				7.547500133514404,
				5.920000076293945,
				4
			],
			"min":[
				-7.547500133514404,
				-0.5,
				-4
			],
			"type":"VEC3"
		},
		{
			"bufferView":1,
			"componentType":5126,
			"count":16858,
			"type":"VEC3"
		},
		{
			"bufferView":2,
			"componentType":5126,
			"count":16858,
			"type":"VEC2"
		},
		{
			"bufferView":3,
			"componentType":5123,
			"count":16858,
			"normalized":true,
			"type":"VEC4"
		},
		{
			"bufferView":4,
			"componentType":5123,
			"count":31932,
			"type":"SCALAR"
		},
		{
			"bufferView":5,
			"componentType":5126,
			"count":192,
			"max":[
				7.380000114440918,
				5.470000267028809,
				3.880000114440918
			],
			"min":[
				-7.380000114440918,
				-0.5,
				-3.880000114440918
			],
			"type":"VEC3"
		},
		{
			"bufferView":6,
			"componentType":5126,
			"count":192,
			"type":"VEC3"
		},
		{
			"bufferView":7,
			"componentType":5126,
			"count":192,
			"type":"VEC2"
		},
		{
			"bufferView":8,
			"componentType":5123,
			"count":192,
			"normalized":true,
			"type":"VEC4"
		},
		{
			"bufferView":9,
			"componentType":5123,
			"count":648,
			"type":"SCALAR"
		},
		{
			"bufferView":10,
			"componentType":5126,
			"count":48,
			"max":[
				3.75,
				3.681999921798706,
				3.9599997997283936
			],
			"min":[
				-3.75,
				3.181999921798706,
				-3.9599997997283936
			],
			"type":"VEC3"
		},
		{
			"bufferView":11,
			"componentType":5126,
			"count":48,
			"type":"VEC3"
		},
		{
			"bufferView":12,
			"componentType":5126,
			"count":48,
			"type":"VEC2"
		},
		{
			"bufferView":13,
			"componentType":5123,
			"count":48,
			"normalized":true,
			"type":"VEC4"
		},
		{
			"bufferView":14,
			"componentType":5123,
			"count":72,
			"type":"SCALAR"
		},
		{
			"bufferView":15,
			"componentType":5126,
			"count":576,
			"max":[
				4.849999904632568,
				2.421999931335449,
				3.940000057220459
			],
			"min":[
				-4.849999904632568,
				1.3220000267028809,
				-3.940000057220459
			],
			"type":"VEC3"
		},
		{
			"bufferView":16,
			"componentType":5126,
			"count":576,
			"type":"VEC3"
		},
		{
			"bufferView":17,
			"componentType":5126,
			"count":576,
			"type":"VEC2"
		},
		{
			"bufferView":18,
			"componentType":5123,
			"count":576,
			"normalized":true,
			"type":"VEC4"
		},
		{
			"bufferView":19,
			"componentType":5123,
			"count":1944,
			"type":"SCALAR"
		}
	],
	"bufferViews":[
		{
			"buffer":0,
			"byteLength":202296,
			"byteOffset":0,
			"target":34962
		},
		{
			"buffer":0,
			"byteLength":202296,
			"byteOffset":202296,
			"target":34962
		},
		{
			"buffer":0,
			"byteLength":134864,
			"byteOffset":404592,
			"target":34962
		},
		{
			"buffer":0,
			"byteLength":134864,
			"byteOffset":539456,
			"target":34962
		},
		{
			"buffer":0,
			"byteLength":63864,
			"byteOffset":674320,
			"target":34963
		},
		{
			"buffer":0,
			"byteLength":2304,
			"byteOffset":738184,
			"target":34962
		},
		{
			"buffer":0,
			"byteLength":2304,
			"byteOffset":740488,
			"target":34962
		},
		{
			"buffer":0,
			"byteLength":1536,
			"byteOffset":742792,
			"target":34962
		},
		{
			"buffer":0,
			"byteLength":1536,
			"byteOffset":744328,
			"target":34962
		},
		{
			"buffer":0,
			"byteLength":1296,
			"byteOffset":745864,
			"target":34963
		},
		{
			"buffer":0,
			"byteLength":576,
			"byteOffset":747160,
			"target":34962
		},
		{
			"buffer":0,
			"byteLength":576,
			"byteOffset":747736,
			"target":34962
		},
		{
			"buffer":0,
			"byteLength":384,
			"byteOffset":748312,
			"target":34962
		},
		{
			"buffer":0,
			"byteLength":384,
			"byteOffset":748696,
			"target":34962
		},
		{
			"buffer":0,
			"byteLength":144,
			"byteOffset":749080,
			"target":34963
		},
		{
			"buffer":0,
			"byteLength":6912,
			"byteOffset":749224,
			"target":34962
		},
		{
			"buffer":0,
			"byteLength":6912,
			"byteOffset":756136,
			"target":34962
		},
		{
			"buffer":0,
			"byteLength":4608,
			"byteOffset":763048,
			"target":34962
		},
		{
			"buffer":0,
			"byteLength":4608,
			"byteOffset":767656,
			"target":34962
		},
		{
			"buffer":0,
			"byteLength":3888,
			"byteOffset":772264,
			"target":34963
		}
	],
	"buffers":[
		{
			"byteLength":776152,
			"uri":"bunker_large.bin"
		}
	]
}
