{
	"asset":{
		"generator":"Khronos glTF Blender I/O v5.2.40",
		"version":"2.0"
	},
	"scene":0,
	"scenes":[
		{
			"name":"Scene",
			"nodes":[
				0
			]
		}
	],
	"nodes":[
		{
			"mesh":0,
			"name":"bunker_medium"
		}
	],
	"materials":[
		{
			"doubleSided":true,
			"name":"steel",
			"pbrMetallicRoughness":{
				"baseColorFactor":[
					0.800000011920929,
					0.800000011920929,
					0.800000011920929,
					1
				],
				"metallicFactor":0,
				"roughnessFactor":0.5
			}
		},
		{
			"doubleSided":true,
			"name":"concrete",
			"pbrMetallicRoughness":{
				"baseColorFactor":[
					0.800000011920929,
					0.800000011920929,
					0.800000011920929,
					1
				],
				"metallicFactor":0,
				"roughnessFactor":0.5
			}
		},
		{
			"doubleSided":true,
			"name":"slot",
			"pbrMetallicRoughness":{
				"baseColorFactor":[
					0.800000011920929,
					0.800000011920929,
					0.800000011920929,
					1
				],
				"metallicFactor":0,
				"roughnessFactor":0.5
			}
		},
		{
			"doubleSided":true,
			"name":"rust",
			"pbrMetallicRoughness":{
				"baseColorFactor":[
					0.800000011920929,
					0.800000011920929,
					0.800000011920929,
					1
				],
				"metallicFactor":0,
				"roughnessFactor":0.5
			}
		}
	],
	"meshes":[
		{
			"name":"Cube.016",
			"primitives":[
				{
					"attributes":{
						"POSITION":0,
						"NORMAL":1,
						"TEXCOORD_0":2,
						"COLOR_0":3
					},
					"indices":4,
					"material":0
				},
				{
					"attributes":{
						"POSITION":5,
						"NORMAL":6,
						"TEXCOORD_0":7,
						"COLOR_0":8
					},
					"indices":9,
					"material":1
				},
				{
					"attributes":{
						"POSITION":10,
						"NORMAL":11,
						"TEXCOORD_0":12,
						"COLOR_0":13
					},
					"indices":14,
					"material":2
				},
				{
					"attributes":{
						"POSITION":15,
						"NORMAL":16,
						"TEXCOORD_0":17,
						"COLOR_0":18
					},
					"indices":19,
					"material":3
				}
			]
		}
	],
	"accessors":[
		{
			"bufferView":0,
			"componentType":5126,
			"count":15290,
			"max":[
				6.047500133514404,
				5.320000171661377,
				3.5
			],
			"min":[
				-6.047500133514404,
				-0.5,
				-3.5
			],
			"type":"VEC3"
		},
		{
			"bufferView":1,
			"componentType":5126,
			"count":15290,
			"type":"VEC3"
		},
		{
			"bufferView":2,
			"componentType":5126,
			"count":15290,
			"type":"VEC2"
		},
		{
			"bufferView":3,
			"componentType":5123,
			"count":15290,
			"normalized":true,
			"type":"VEC4"
		},
		{
			"bufferView":4,
			"componentType":5123,
			"count":29628,
			"type":"SCALAR"
		},
		{
			"bufferView":5,
			"componentType":5126,
			"count":192,
			"max":[
				5.880000114440918,
				4.869999885559082,
				3.380000114440918
			],
			"min":[
				-5.880000114440918,
				-0.5,
				-3.380000114440918
			],
			"type":"VEC3"
		},
		{
			"bufferView":6,
			"componentType":5126,
			"count":192,
			"type":"VEC3"
		},
		{
			"bufferView":7,
			"componentType":5126,
			"count":192,
			"type":"VEC2"
		},
		{
			"bufferView":8,
			"componentType":5123,
			"count":192,
			"normalized":true,
			"type":"VEC4"
		},
		{
			"bufferView":9,
			"componentType":5123,
			"count":648,
			"type":"SCALAR"
		},
		{
			"bufferView":10,
			"componentType":5126,
			"count":48,
			"max":[
				3,
				3.2860000133514404,
				3.4599997997283936
			],
			"min":[
				-3,
				2.7860000133514404,
				-3.4599997997283936
			],
			"type":"VEC3"
		},
		{
			"bufferView":11,
			"componentType":5126,
			"count":48,
			"type":"VEC3"
		},
		{
			"bufferView":12,
			"componentType":5126,
			"count":48,
			"type":"VEC2"
		},
		{
			"bufferView":13,
			"componentType":5123,
			"count":48,
			"normalized":true,
			"type":"VEC4"
		},
		{
			"bufferView":14,
			"componentType":5123,
			"count":72,
			"type":"SCALAR"
		},
		{
			"bufferView":15,
			"componentType":5126,
			"count":576,
			"max":[
				4.009999752044678,
				2.2060000896453857,
				3.440000057220459
			],
			"min":[
				-4.009999752044678,
				1.1059999465942383,
				-3.440000057220459
			],
			"type":"VEC3"
		},
		{
			"bufferView":16,
			"componentType":5126,
			"count":576,
			"type":"VEC3"
		},
		{
			"bufferView":17,
			"componentType":5126,
			"count":576,
			"type":"VEC2"
		},
		{
			"bufferView":18,
			"componentType":5123,
			"count":576,
			"normalized":true,
			"type":"VEC4"
		},
		{
			"bufferView":19,
			"componentType":5123,
			"count":1944,
			"type":"SCALAR"
		}
	],
	"bufferViews":[
		{
			"buffer":0,
			"byteLength":183480,
			"byteOffset":0,
			"target":34962
		},
		{
			"buffer":0,
			"byteLength":183480,
			"byteOffset":183480,
			"target":34962
		},
		{
			"buffer":0,
			"byteLength":122320,
			"byteOffset":366960,
			"target":34962
		},
		{
			"buffer":0,
			"byteLength":122320,
			"byteOffset":489280,
			"target":34962
		},
		{
			"buffer":0,
			"byteLength":59256,
			"byteOffset":611600,
			"target":34963
		},
		{
			"buffer":0,
			"byteLength":2304,
			"byteOffset":670856,
			"target":34962
		},
		{
			"buffer":0,
			"byteLength":2304,
			"byteOffset":673160,
			"target":34962
		},
		{
			"buffer":0,
			"byteLength":1536,
			"byteOffset":675464,
			"target":34962
		},
		{
			"buffer":0,
			"byteLength":1536,
			"byteOffset":677000,
			"target":34962
		},
		{
			"buffer":0,
			"byteLength":1296,
			"byteOffset":678536,
			"target":34963
		},
		{
			"buffer":0,
			"byteLength":576,
			"byteOffset":679832,
			"target":34962
		},
		{
			"buffer":0,
			"byteLength":576,
			"byteOffset":680408,
			"target":34962
		},
		{
			"buffer":0,
			"byteLength":384,
			"byteOffset":680984,
			"target":34962
		},
		{
			"buffer":0,
			"byteLength":384,
			"byteOffset":681368,
			"target":34962
		},
		{
			"buffer":0,
			"byteLength":144,
			"byteOffset":681752,
			"target":34963
		},
		{
			"buffer":0,
			"byteLength":6912,
			"byteOffset":681896,
			"target":34962
		},
		{
			"buffer":0,
			"byteLength":6912,
			"byteOffset":688808,
			"target":34962
		},
		{
			"buffer":0,
			"byteLength":4608,
			"byteOffset":695720,
			"target":34962
		},
		{
			"buffer":0,
			"byteLength":4608,
			"byteOffset":700328,
			"target":34962
		},
		{
			"buffer":0,
			"byteLength":3888,
			"byteOffset":704936,
			"target":34963
		}
	],
	"buffers":[
		{
			"byteLength":708824,
			"uri":"bunker_medium.bin"
		}
	]
}
