{
	"asset":{
		"generator":"Khronos glTF Blender I/O v5.2.40",
		"version":"2.0"
	},
	"scene":0,
	"scenes":[
		{
			"name":"Scene",
			"nodes":[
				0
			]
		}
	],
	"nodes":[
		{
			"mesh":0,
			"name":"bunker_small"
		}
	],
	"materials":[
		{
			"doubleSided":true,
			"name":"steel",
			"pbrMetallicRoughness":{
				"baseColorFactor":[
					0.800000011920929,
					0.800000011920929,
					0.800000011920929,
					1
				],
				"metallicFactor":0,
				"roughnessFactor":0.5
			}
		},
		{
			"doubleSided":true,
			"name":"concrete",
			"pbrMetallicRoughness":{
				"baseColorFactor":[
					0.800000011920929,
					0.800000011920929,
					0.800000011920929,
					1
				],
				"metallicFactor":0,
				"roughnessFactor":0.5
			}
		},
		{
			"doubleSided":true,
			"name":"slot",
			"pbrMetallicRoughness":{
				"baseColorFactor":[
					0.800000011920929,
					0.800000011920929,
					0.800000011920929,
					1
				],
				"metallicFactor":0,
				"roughnessFactor":0.5
			}
		},
		{
			"doubleSided":true,
			"name":"rust",
			"pbrMetallicRoughness":{
				"baseColorFactor":[
					0.800000011920929,
					0.800000011920929,
					0.800000011920929,
					1
				],
				"metallicFactor":0,
				"roughnessFactor":0.5
			}
		}
	],
	"meshes":[
		{
			"name":"Cube.016",
			"primitives":[
				{
					"attributes":{
						"POSITION":0,
						"NORMAL":1,
						"TEXCOORD_0":2,
						"COLOR_0":3
					},
					"indices":4,
					"material":0
				},
				{
					"attributes":{
						"POSITION":5,
						"NORMAL":6,
						"TEXCOORD_0":7,
						"COLOR_0":8
					},
					"indices":9,
					"material":1
				},
				{
					"attributes":{
						"POSITION":10,
						"NORMAL":11,
						"TEXCOORD_0":12,
						"COLOR_0":13
					},
					"indices":14,
					"material":2
				},
				{
					"attributes":{
						"POSITION":15,
						"NORMAL":16,
						"TEXCOORD_0":17,
						"COLOR_0":18
					},
					"indices":19,
					"material":3
				}
			]
		}
	],
	"accessors":[
		{
			"bufferView":0,
			"componentType":5126,
			"count":13322,
			"max":[
				4.547500133514404,
				4.71999979019165,
				3
			],
			"min":[
				-4.547500133514404,
				-0.5,
				-3
			],
			"type":"VEC3"
		},
		{
			"bufferView":1,
			"componentType":5126,
			"count":13322,
			"type":"VEC3"
		},
		{
			"bufferView":2,
			"componentType":5126,
			"count":13322,
			"type":"VEC2"
		},
		{
			"bufferView":3,
			"componentType":5123,
			"count":13322,
			"normalized":true,
			"type":"VEC4"
		},
		{
			"bufferView":4,
			"componentType":5123,
			"count":26748,
			"type":"SCALAR"
		},
		{
			"bufferView":5,
			"componentType":5126,
			"count":192,
			"max":[
				4.380000114440918,
				4.269999980926514,
				2.880000114440918
			],
			"min":[
				-4.380000114440918,
				-0.5,
				-2.880000114440918
			],
			"type":"VEC3"
		},
		{
			"bufferView":6,
			"componentType":5126,
			"count":192,
			"type":"VEC3"
		},
		{
			"bufferView":7,
			"componentType":5126,
			"count":192,
			"type":"VEC2"
		},
		{
			"bufferView":8,
			"componentType":5123,
			"count":192,
			"normalized":true,
			"type":"VEC4"
		},
		{
			"bufferView":9,
			"componentType":5123,
			"count":648,
			"type":"SCALAR"
		},
		{
			"bufferView":10,
			"componentType":5126,
			"count":48,
			"max":[
				2.25,
				2.890000104904175,
				2.9599997997283936
			],
			"min":[
				-2.25,
				2.390000104904175,
				-2.9599997997283936
			],
			"type":"VEC3"
		},
		{
			"bufferView":11,
			"componentType":5126,
			"count":48,
			"type":"VEC3"
		},
		{
			"bufferView":12,
			"componentType":5126,
			"count":48,
			"type":"VEC2"
		},
		{
			"bufferView":13,
			"componentType":5123,
			"count":48,
			"normalized":true,
			"type":"VEC4"
		},
		{
			"bufferView":14,
			"componentType":5123,
			"count":72,
			"type":"SCALAR"
		},
		{
			"bufferView":15,
			"componentType":5126,
			"count":576,
			"max":[
				3.1700000762939453,
				1.9900000095367432,
				2.940000057220459
			],
			"min":[
				-3.1700000762939453,
				0.89000004529953,
				-2.940000057220459
			],
			"type":"VEC3"
		},
		{
			"bufferView":16,
			"componentType":5126,
			"count":576,
			"type":"VEC3"
		},
		{
			"bufferView":17,
			"componentType":5126,
			"count":576,
			"type":"VEC2"
		},
		{
			"bufferView":18,
			"componentType":5123,
			"count":576,
			"normalized":true,
			"type":"VEC4"
		},
		{
			"bufferView":19,
			"componentType":5123,
			"count":1944,
			"type":"SCALAR"
		}
	],
	"bufferViews":[
		{
			"buffer":0,
			"byteLength":159864,
			"byteOffset":0,
			"target":34962
		},
		{
			"buffer":0,
			"byteLength":159864,
			"byteOffset":159864,
			"target":34962
		},
		{
			"buffer":0,
			"byteLength":106576,
			"byteOffset":319728,
			"target":34962
		},
		{
			"buffer":0,
			"byteLength":106576,
			"byteOffset":426304,
			"target":34962
		},
		{
			"buffer":0,
			"byteLength":53496,
			"byteOffset":532880,
			"target":34963
		},
		{
			"buffer":0,
			"byteLength":2304,
			"byteOffset":586376,
			"target":34962
		},
		{
			"buffer":0,
			"byteLength":2304,
			"byteOffset":588680,
			"target":34962
		},
		{
			"buffer":0,
			"byteLength":1536,
			"byteOffset":590984,
			"target":34962
		},
		{
			"buffer":0,
			"byteLength":1536,
			"byteOffset":592520,
			"target":34962
		},
		{
			"buffer":0,
			"byteLength":1296,
			"byteOffset":594056,
			"target":34963
		},
		{
			"buffer":0,
			"byteLength":576,
			"byteOffset":595352,
			"target":34962
		},
		{
			"buffer":0,
			"byteLength":576,
			"byteOffset":595928,
			"target":34962
		},
		{
			"buffer":0,
			"byteLength":384,
			"byteOffset":596504,
			"target":34962
		},
		{
			"buffer":0,
			"byteLength":384,
			"byteOffset":596888,
			"target":34962
		},
		{
			"buffer":0,
			"byteLength":144,
			"byteOffset":597272,
			"target":34963
		},
		{
			"buffer":0,
			"byteLength":6912,
			"byteOffset":597416,
			"target":34962
		},
		{
			"buffer":0,
			"byteLength":6912,
			"byteOffset":604328,
			"target":34962
		},
		{
			"buffer":0,
			"byteLength":4608,
			"byteOffset":611240,
			"target":34962
		},
		{
			"buffer":0,
			"byteLength":4608,
			"byteOffset":615848,
			"target":34962
		},
		{
			"buffer":0,
			"byteLength":3888,
			"byteOffset":620456,
			"target":34963
		}
	],
	"buffers":[
		{
			"byteLength":624344,
			"uri":"bunker_small.bin"
		}
	]
}
