{
	"asset":{
		"generator":"Khronos glTF Blender I/O v5.2.40",
		"version":"2.0"
	},
	"scene":0,
	"scenes":[
		{
			"name":"Scene",
			"nodes":[
				0
			]
		}
	],
	"nodes":[
		{
			"mesh":0,
			"name":"granite_boulder_a"
		}
	],
	"materials":[
		{
			"doubleSided":true,
			"name":"granite_boulder_a",
			"normalTexture":{
				"index":0
			},
			"pbrMetallicRoughness":{
				"baseColorTexture":{
					"index":1
				},
				"metallicFactor":0,
				"metallicRoughnessTexture":{
					"index":2
				}
			}
		}
	],
	"meshes":[
		{
			"name":"boulder_02_5m.001",
			"primitives":[
				{
					"attributes":{
						"POSITION":0,
						"NORMAL":1,
						"TEXCOORD_0":2
					},
					"indices":3,
					"material":0
				}
			]
		}
	],
	"textures":[
		{
			"sampler":0,
			"source":0
		},
		{
			"sampler":0,
			"source":1
		},
		{
			"sampler":0,
			"source":2
		}
	],
	"images":[
		{
			"mimeType":"image/jpeg",
			"name":"granite_boulder_a_nor",
			"uri":"granite_boulder_a_nor.jpg"
		},
		{
			"mimeType":"image/jpeg",
			"name":"granite_boulder_a_diff",
			"uri":"granite_boulder_a_diff.jpg"
		},
		{
			"mimeType":"image/jpeg",
			"name":"granite_boulder_a_arm",
			"uri":"granite_boulder_a_arm.jpg"
		}
	],
	"accessors":[
		{
			"bufferView":0,
			"componentType":5126,
			"count":2686,
			"max":[
				1.2632951736450195,
				0.8077971935272217,
				0.6133798360824585
			],
			"min":[
				-1.2550582885742188,
				-0.06878308206796646,
				-0.6159535050392151
			],
			"type":"VEC3"
		},
		{
			"bufferView":1,
			"componentType":5126,
			"count":2686,
			"type":"VEC3"
		},
		{
			"bufferView":2,
			"componentType":5126,
			"count":2686,
			"type":"VEC2"
		},
		{
			"bufferView":3,
			"componentType":5123,
			"count":9597,
			"type":"SCALAR"
		}
	],
	"bufferViews":[
		{
			"buffer":0,
			"byteLength":32232,
			"byteOffset":0,
			"target":34962
		},
		{
			"buffer":0,
			"byteLength":32232,
			"byteOffset":32232,
			"target":34962
		},
		{
			"buffer":0,
			"byteLength":21488,
			"byteOffset":64464,
			"target":34962
		},
		{
			"buffer":0,
			"byteLength":19194,
			"byteOffset":85952,
			"target":34963
		}
	],
	"samplers":[
		{
			"magFilter":9729,
			"minFilter":9987
		}
	],
	"buffers":[
		{
			"byteLength":105148,
			"uri":"granite_boulder_a.bin"
		}
	]
}
