{
	"asset":{
		"generator":"Khronos glTF Blender I/O v5.2.40",
		"version":"2.0"
	},
	"scene":0,
	"scenes":[
		{
			"name":"Scene",
			"nodes":[
				0
			]
		}
	],
	"nodes":[
		{
			"mesh":0,
			"name":"granite_boulder_c"
		}
	],
	"materials":[
		{
			"doubleSided":true,
			"name":"granite_boulder_c",
			"normalTexture":{
				"index":0
			},
			"pbrMetallicRoughness":{
				"baseColorTexture":{
					"index":1
				},
				"metallicFactor":0,
				"metallicRoughnessTexture":{
					"index":2
				}
			}
		}
	],
	"meshes":[
		{
			"name":"realCap_Model_2.001",
			"primitives":[
				{
					"attributes":{
						"POSITION":0,
						"NORMAL":1,
						"TEXCOORD_0":2
					},
					"indices":3,
					"material":0
				}
			]
		}
	],
	"textures":[
		{
			"sampler":0,
			"source":0
		},
		{
			"sampler":0,
			"source":1
		},
		{
			"sampler":0,
			"source":2
		}
	],
	"images":[
		{
			"mimeType":"image/jpeg",
			"name":"granite_boulder_c_nor",
			"uri":"granite_boulder_c_nor.jpg"
		},
		{
			"mimeType":"image/jpeg",
			"name":"granite_boulder_c_diff",
			"uri":"granite_boulder_c_diff.jpg"
		},
		{
			"mimeType":"image/jpeg",
			"name":"granite_boulder_c_arm",
			"uri":"granite_boulder_c_arm.jpg"
		}
	],
	"accessors":[
		{
			"bufferView":0,
			"componentType":5126,
			"count":2058,
			"max":[
				1.2610599994659424,
				1.7492461204528809,
				1.247821569442749
			],
			"min":[
				-1.2597534656524658,
				-0.1545371562242508,
				-1.247435212135315
			],
			"type":"VEC3"
		},
		{
			"bufferView":1,
			"componentType":5126,
			"count":2058,
			"type":"VEC3"
		},
		{
			"bufferView":2,
			"componentType":5126,
			"count":2058,
			"type":"VEC2"
		},
		{
			"bufferView":3,
			"componentType":5123,
			"count":10800,
			"type":"SCALAR"
		}
	],
	"bufferViews":[
		{
			"buffer":0,
			"byteLength":24696,
			"byteOffset":0,
			"target":34962
		},
		{
			"buffer":0,
			"byteLength":24696,
			"byteOffset":24696,
			"target":34962
		},
		{
			"buffer":0,
			"byteLength":16464,
			"byteOffset":49392,
			"target":34962
		},
		{
			"buffer":0,
			"byteLength":21600,
			"byteOffset":65856,
			"target":34963
		}
	],
	"samplers":[
		{
			"magFilter":9729,
			"minFilter":9987
		}
	],
	"buffers":[
		{
			"byteLength":87456,
			"uri":"granite_boulder_c.bin"
		}
	]
}
