{
	"asset":{
		"generator":"Khronos glTF Blender I/O v5.2.40",
		"version":"2.0"
	},
	"scene":0,
	"scenes":[
		{
			"name":"Scene",
			"nodes":[
				0
			]
		}
	],
	"nodes":[
		{
			"mesh":0,
			"name":"granite_boulder_e"
		}
	],
	"materials":[
		{
			"doubleSided":true,
			"name":"granite_boulder_e",
			"normalTexture":{
				"index":0
			},
			"pbrMetallicRoughness":{
				"baseColorTexture":{
					"index":1
				},
				"metallicFactor":0,
				"metallicRoughnessTexture":{
					"index":2
				}
			}
		}
	],
	"meshes":[
		{
			"name":"mesh_boulder_01_5m.001",
			"primitives":[
				{
					"attributes":{
						"POSITION":0,
						"NORMAL":1,
						"TEXCOORD_0":2
					},
					"indices":3,
					"material":0
				}
			]
		}
	],
	"textures":[
		{
			"sampler":0,
			"source":0
		},
		{
			"sampler":0,
			"source":1
		},
		{
			"sampler":0,
			"source":2
		}
	],
	"images":[
		{
			"mimeType":"image/jpeg",
			"name":"granite_boulder_e_nor",
			"uri":"granite_boulder_e_nor.jpg"
		},
		{
			"mimeType":"image/jpeg",
			"name":"granite_boulder_e_diff",
			"uri":"granite_boulder_e_diff.jpg"
		},
		{
			"mimeType":"image/jpeg",
			"name":"granite_boulder_e_arm",
			"uri":"granite_boulder_e_arm.jpg"
		}
	],
	"accessors":[
		{
			"bufferView":0,
			"componentType":5126,
			"count":1604,
			"max":[
				0.33650192618370056,
				0.5978211164474487,
				0.6033836603164673
			],
			"min":[
				-0.33481356501579285,
				-0.05157937481999397,
				-0.6035131812095642
			],
			"type":"VEC3"
		},
		{
			"bufferView":1,
			"componentType":5126,
			"count":1604,
			"type":"VEC3"
		},
		{
			"bufferView":2,
			"componentType":5126,
			"count":1604,
			"type":"VEC2"
		},
		{
			"bufferView":3,
			"componentType":5123,
			"count":7200,
			"type":"SCALAR"
		}
	],
	"bufferViews":[
		{
			"buffer":0,
			"byteLength":19248,
			"byteOffset":0,
			"target":34962
		},
		{
			"buffer":0,
			"byteLength":19248,
			"byteOffset":19248,
			"target":34962
		},
		{
			"buffer":0,
			"byteLength":12832,
			"byteOffset":38496,
			"target":34962
		},
		{
			"buffer":0,
			"byteLength":14400,
			"byteOffset":51328,
			"target":34963
		}
	],
	"samplers":[
		{
			"magFilter":9729,
			"minFilter":9987
		}
	],
	"buffers":[
		{
			"byteLength":65728,
			"uri":"granite_boulder_e.bin"
		}
	]
}
