{
	"asset":{
		"generator":"Khronos glTF Blender I/O v5.2.40",
		"version":"2.0"
	},
	"scene":0,
	"scenes":[
		{
			"name":"Scene",
			"nodes":[
				0
			]
		}
	],
	"nodes":[
		{
			"mesh":0,
			"name":"granite_boulder_d"
		}
	],
	"materials":[
		{
			"doubleSided":true,
			"name":"granite_boulder_d",
			"normalTexture":{
				"index":0
			},
			"pbrMetallicRoughness":{
				"baseColorTexture":{
					"index":1
				},
				"metallicFactor":0,
				"metallicRoughnessTexture":{
					"index":2
				}
			}
		}
	],
	"meshes":[
		{
			"name":"Boulder.001",
			"primitives":[
				{
					"attributes":{
						"POSITION":0,
						"NORMAL":1,
						"TEXCOORD_0":2
					},
					"indices":3,
					"material":0
				}
			]
		}
	],
	"textures":[
		{
			"sampler":0,
			"source":0
		},
		{
			"sampler":0,
			"source":1
		},
		{
			"sampler":0,
			"source":2
		}
	],
	"images":[
		{
			"mimeType":"image/jpeg",
			"name":"granite_boulder_d_nor",
			"uri":"granite_boulder_d_nor.jpg"
		},
		{
			"mimeType":"image/jpeg",
			"name":"granite_boulder_d_diff",
			"uri":"granite_boulder_d_diff.jpg"
		},
		{
			"mimeType":"image/jpeg",
			"name":"granite_boulder_d_arm",
			"uri":"granite_boulder_d_arm.jpg"
		}
	],
	"accessors":[
		{
			"bufferView":0,
			"componentType":5126,
			"count":1543,
			"max":[
				0.6794372797012329,
				0.49419766664505005,
				0.3712517023086548
			],
			"min":[
				-0.6839286684989929,
				-0.03806304931640625,
				-0.36961987614631653
			],
			"type":"VEC3"
		},
		{
			"bufferView":1,
			"componentType":5126,
			"count":1543,
			"type":"VEC3"
		},
		{
			"bufferView":2,
			"componentType":5126,
			"count":1543,
			"type":"VEC2"
		},
		{
			"bufferView":3,
			"componentType":5123,
			"count":7200,
			"type":"SCALAR"
		}
	],
	"bufferViews":[
		{
			"buffer":0,
			"byteLength":18516,
			"byteOffset":0,
			"target":34962
		},
		{
			"buffer":0,
			"byteLength":18516,
			"byteOffset":18516,
			"target":34962
		},
		{
			"buffer":0,
			"byteLength":12344,
			"byteOffset":37032,
			"target":34962
		},
		{
			"buffer":0,
			"byteLength":14400,
			"byteOffset":49376,
			"target":34963
		}
	],
	"samplers":[
		{
			"magFilter":9729,
			"minFilter":9987
		}
	],
	"buffers":[
		{
			"byteLength":63776,
			"uri":"granite_boulder_d.bin"
		}
	]
}
