{
	"asset":{
		"generator":"Khronos glTF Blender I/O v5.2.40",
		"version":"2.0"
	},
	"scene":0,
	"scenes":[
		{
			"name":"Scene",
			"nodes":[
				0
			]
		}
	],
	"nodes":[
		{
			"mesh":0,
			"name":"granite_boulder_b"
		}
	],
	"materials":[
		{
			"doubleSided":true,
			"name":"granite_boulder_b",
			"normalTexture":{
				"index":0
			},
			"pbrMetallicRoughness":{
				"baseColorTexture":{
					"index":1
				},
				"metallicFactor":0,
				"metallicRoughnessTexture":{
					"index":2
				}
			}
		}
	],
	"meshes":[
		{
			"name":"realCap_Model_2.001",
			"primitives":[
				{
					"attributes":{
						"POSITION":0,
						"NORMAL":1,
						"TEXCOORD_0":2
					},
					"indices":3,
					"material":0
				}
			]
		}
	],
	"textures":[
		{
			"sampler":0,
			"source":0
		},
		{
			"sampler":0,
			"source":1
		},
		{
			"sampler":0,
			"source":2
		}
	],
	"images":[
		{
			"mimeType":"image/jpeg",
			"name":"granite_boulder_b_nor",
			"uri":"granite_boulder_b_nor.jpg"
		},
		{
			"mimeType":"image/jpeg",
			"name":"granite_boulder_b_diff",
			"uri":"granite_boulder_b_diff.jpg"
		},
		{
			"mimeType":"image/jpeg",
			"name":"granite_boulder_b_arm",
			"uri":"granite_boulder_b_arm.jpg"
		}
	],
	"accessors":[
		{
			"bufferView":0,
			"componentType":5126,
			"count":2118,
			"max":[
				1.2006499767303467,
				1.357291340827942,
				1.5388842821121216
			],
			"min":[
				-1.2040358781814575,
				-0.11867325007915497,
				-1.5343196392059326
			],
			"type":"VEC3"
		},
		{
			"bufferView":1,
			"componentType":5126,
			"count":2118,
			"type":"VEC3"
		},
		{
			"bufferView":2,
			"componentType":5126,
			"count":2118,
			"type":"VEC2"
		},
		{
			"bufferView":3,
			"componentType":5123,
			"count":10797,
			"type":"SCALAR"
		}
	],
	"bufferViews":[
		{
			"buffer":0,
			"byteLength":25416,
			"byteOffset":0,
			"target":34962
		},
		{
			"buffer":0,
			"byteLength":25416,
			"byteOffset":25416,
			"target":34962
		},
		{
			"buffer":0,
			"byteLength":16944,
			"byteOffset":50832,
			"target":34962
		},
		{
			"buffer":0,
			"byteLength":21594,
			"byteOffset":67776,
			"target":34963
		}
	],
	"samplers":[
		{
			"magFilter":9729,
			"minFilter":9987
		}
	],
	"buffers":[
		{
			"byteLength":89372,
			"uri":"granite_boulder_b.bin"
		}
	]
}
