{
	"asset":{
		"generator":"Khronos glTF Blender I/O v5.2.40",
		"version":"2.0"
	},
	"scene":0,
	"scenes":[
		{
			"name":"Scene",
			"nodes":[
				0
			]
		}
	],
	"nodes":[
		{
			"mesh":0,
			"name":"jump_ramp"
		}
	],
	"materials":[
		{
			"doubleSided":true,
			"name":"steel",
			"pbrMetallicRoughness":{
				"baseColorFactor":[
					0.800000011920929,
					0.800000011920929,
					0.800000011920929,
					1
				],
				"metallicFactor":0,
				"roughnessFactor":0.5
			}
		},
		{
			"doubleSided":true,
			"name":"concrete",
			"pbrMetallicRoughness":{
				"baseColorFactor":[
					0.800000011920929,
					0.800000011920929,
					0.800000011920929,
					1
				],
				"metallicFactor":0,
				"roughnessFactor":0.5
			}
		},
		{
			"doubleSided":true,
			"name":"rust",
			"pbrMetallicRoughness":{
				"baseColorFactor":[
					0.800000011920929,
					0.800000011920929,
					0.800000011920929,
					1
				],
				"metallicFactor":0,
				"roughnessFactor":0.5
			}
		},
		{
			"doubleSided":true,
			"name":"hazard",
			"pbrMetallicRoughness":{
				"baseColorFactor":[
					0.800000011920929,
					0.800000011920929,
					0.800000011920929,
					1
				],
				"metallicFactor":0,
				"roughnessFactor":0.5
			}
		},
		{
			"doubleSided":true,
			"name":"slot",
			"pbrMetallicRoughness":{
				"baseColorFactor":[
					0.800000011920929,
					0.800000011920929,
					0.800000011920929,
					1
				],
				"metallicFactor":0,
				"roughnessFactor":0.5
			}
		}
	],
	"meshes":[
		{
			"name":"Cube.041",
			"primitives":[
				{
					"attributes":{
						"POSITION":0,
						"NORMAL":1,
						"TEXCOORD_0":2,
						"COLOR_0":3
					},
					"indices":4,
					"material":0
				},
				{
					"attributes":{
						"POSITION":5,
						"NORMAL":6,
						"TEXCOORD_0":7,
						"COLOR_0":8
					},
					"indices":9,
					"material":1
				},
				{
					"attributes":{
						"POSITION":10,
						"NORMAL":11,
						"TEXCOORD_0":12,
						"COLOR_0":13
					},
					"indices":14,
					"material":2
				},
				{
					"attributes":{
						"POSITION":15,
						"NORMAL":16,
						"TEXCOORD_0":17,
						"COLOR_0":18
					},
					"indices":19,
					"material":3
				},
				{
					"attributes":{
						"POSITION":20,
						"NORMAL":21,
						"TEXCOORD_0":22,
						"COLOR_0":23
					},
					"indices":19,
					"material":4
				}
			]
		}
	],
	"accessors":[
		{
			"bufferView":0,
			"componentType":5126,
			"count":14480,
			"max":[
				4.050000190734863,
				5.7161664962768555,
				8.192011833190918
			],
			"min":[
				-4.050000190734863,
				-0.5999999046325684,
				-7.607500076293945
			],
			"type":"VEC3"
		},
		{
			"bufferView":1,
			"componentType":5126,
			"count":14480,
			"type":"VEC3"
		},
		{
			"bufferView":2,
			"componentType":5126,
			"count":14480,
			"type":"VEC2"
		},
		{
			"bufferView":3,
			"componentType":5123,
			"count":14480,
			"normalized":true,
			"type":"VEC4"
		},
		{
			"bufferView":4,
			"componentType":5123,
			"count":23472,
			"type":"SCALAR"
		},
		{
			"bufferView":5,
			"componentType":5126,
			"count":284,
			"max":[
				4,
				5.619999885559082,
				8.100000381469727
			],
			"min":[
				-4,
				-0.6000000238418579,
				-7.5
			],
			"type":"VEC3"
		},
		{
			"bufferView":6,
			"componentType":5126,
			"count":284,
			"type":"VEC3"
		},
		{
			"bufferView":7,
			"componentType":5126,
			"count":284,
			"type":"VEC2"
		},
		{
			"bufferView":8,
			"componentType":5123,
			"count":284,
			"normalized":true,
			"type":"VEC4"
		},
		{
			"bufferView":9,
			"componentType":5123,
			"count":996,
			"type":"SCALAR"
		},
		{
			"bufferView":10,
			"componentType":5126,
			"count":2880,
			"max":[
				3.299999952316284,
				5.512954235076904,
				7.933436393737793
			],
			"min":[
				-3.299999952316284,
				-0.4296029210090637,
				-5.653545379638672
			],
			"type":"VEC3"
		},
		{
			"bufferView":11,
			"componentType":5126,
			"count":2880,
			"type":"VEC3"
		},
		{
			"bufferView":12,
			"componentType":5126,
			"count":2880,
			"type":"VEC2"
		},
		{
			"bufferView":13,
			"componentType":5123,
			"count":2880,
			"normalized":true,
			"type":"VEC4"
		},
		{
			"bufferView":14,
			"componentType":5123,
			"count":9720,
			"type":"SCALAR"
		},
		{
			"bufferView":15,
			"componentType":5126,
			"count":120,
			"max":[
				2.980280876159668,
				5.515522003173828,
				-7.53000020980835
			],
			"min":[
				-3.7358365058898926,
				4.784478187561035,
				-7.570000171661377
			],
			"type":"VEC3"
		},
		{
			"bufferView":16,
			"componentType":5126,
			"count":120,
			"type":"VEC3"
		},
		{
			"bufferView":17,
			"componentType":5126,
			"count":120,
			"type":"VEC2"
		},
		{
			"bufferView":18,
			"componentType":5123,
			"count":120,
			"normalized":true,
			"type":"VEC4"
		},
		{
			"bufferView":19,
			"componentType":5123,
			"count":180,
			"type":"SCALAR"
		},
		{
			"bufferView":20,
			"componentType":5126,
			"count":120,
			"max":[
				3.7358365058898926,
				5.515522003173828,
				-7.53000020980835
			],
			"min":[
				-2.980280876159668,
				4.784478187561035,
				-7.570000171661377
			],
			"type":"VEC3"
		},
		{
			"bufferView":21,
			"componentType":5126,
			"count":120,
			"type":"VEC3"
		},
		{
			"bufferView":22,
			"componentType":5126,
			"count":120,
			"type":"VEC2"
		},
		{
			"bufferView":23,
			"componentType":5123,
			"count":120,
			"normalized":true,
			"type":"VEC4"
		}
	],
	"bufferViews":[
		{
			"buffer":0,
			"byteLength":173760,
			"byteOffset":0,
			"target":34962
		},
		{
			"buffer":0,
			"byteLength":173760,
			"byteOffset":173760,
			"target":34962
		},
		{
			"buffer":0,
			"byteLength":115840,
			"byteOffset":347520,
			"target":34962
		},
		{
			"buffer":0,
			"byteLength":115840,
			"byteOffset":463360,
			"target":34962
		},
		{
			"buffer":0,
			"byteLength":46944,
			"byteOffset":579200,
			"target":34963
		},
		{
			"buffer":0,
			"byteLength":3408,
			"byteOffset":626144,
			"target":34962
		},
		{
			"buffer":0,
			"byteLength":3408,
			"byteOffset":629552,
			"target":34962
		},
		{
			"buffer":0,
			"byteLength":2272,
			"byteOffset":632960,
			"target":34962
		},
		{
			"buffer":0,
			"byteLength":2272,
			"byteOffset":635232,
			"target":34962
		},
		{
			"buffer":0,
			"byteLength":1992,
			"byteOffset":637504,
			"target":34963
		},
		{
			"buffer":0,
			"byteLength":34560,
			"byteOffset":639496,
			"target":34962
		},
		{
			"buffer":0,
			"byteLength":34560,
			"byteOffset":674056,
			"target":34962
		},
		{
			"buffer":0,
			"byteLength":23040,
			"byteOffset":708616,
			"target":34962
		},
		{
			"buffer":0,
			"byteLength":23040,
			"byteOffset":731656,
			"target":34962
		},
		{
			"buffer":0,
			"byteLength":19440,
			"byteOffset":754696,
			"target":34963
		},
		{
			"buffer":0,
			"byteLength":1440,
			"byteOffset":774136,
			"target":34962
		},
		{
			"buffer":0,
			"byteLength":1440,
			"byteOffset":775576,
			"target":34962
		},
		{
			"buffer":0,
			"byteLength":960,
			"byteOffset":777016,
			"target":34962
		},
		{
			"buffer":0,
			"byteLength":960,
			"byteOffset":777976,
			"target":34962
		},
		{
			"buffer":0,
			"byteLength":360,
			"byteOffset":778936,
			"target":34963
		},
		{
			"buffer":0,
			"byteLength":1440,
			"byteOffset":779296,
			"target":34962
		},
		{
			"buffer":0,
			"byteLength":1440,
			"byteOffset":780736,
			"target":34962
		},
		{
			"buffer":0,
			"byteLength":960,
			"byteOffset":782176,
			"target":34962
		},
		{
			"buffer":0,
			"byteLength":960,
			"byteOffset":783136,
			"target":34962
		}
	],
	"buffers":[
		{
			"byteLength":784096,
			"uri":"jump_ramp.bin"
		}
	]
}
