{
	"asset":{
		"generator":"Khronos glTF Blender I/O v5.2.40",
		"version":"2.0"
	},
	"scene":0,
	"scenes":[
		{
			"name":"Scene",
			"nodes":[
				0
			]
		}
	],
	"nodes":[
		{
			"mesh":0,
			"name":"post"
		}
	],
	"materials":[
		{
			"doubleSided":true,
			"name":"timber",
			"pbrMetallicRoughness":{
				"baseColorFactor":[
					0.800000011920929,
					0.800000011920929,
					0.800000011920929,
					1
				],
				"metallicFactor":0,
				"roughnessFactor":0.5
			}
		},
		{
			"doubleSided":true,
			"name":"iron",
			"pbrMetallicRoughness":{
				"baseColorFactor":[
					0.800000011920929,
					0.800000011920929,
					0.800000011920929,
					1
				],
				"metallicFactor":0,
				"roughnessFactor":0.5
			}
		}
	],
	"meshes":[
		{
			"name":"t",
			"primitives":[
				{
					"attributes":{
						"POSITION":0,
						"NORMAL":1,
						"TEXCOORD_0":2,
						"COLOR_0":3
					},
					"indices":4,
					"material":0
				},
				{
					"attributes":{
						"POSITION":5,
						"NORMAL":6,
						"TEXCOORD_0":7,
						"COLOR_0":8
					},
					"indices":9,
					"material":1
				}
			]
		}
	],
	"accessors":[
		{
			"bufferView":0,
			"componentType":5126,
			"count":96,
			"max":[
				0.5753883123397827,
				16.399999618530273,
				-0.004999399185180664
			],
			"min":[
				-0.5746116638183594,
				0,
				-1.1550005674362183
			],
			"type":"VEC3"
		},
		{
			"bufferView":1,
			"componentType":5126,
			"count":96,
			"type":"VEC3"
		},
		{
			"bufferView":2,
			"componentType":5126,
			"count":96,
			"type":"VEC2"
		},
		{
			"bufferView":3,
			"componentType":5123,
			"count":96,
			"normalized":true,
			"type":"VEC4"
		},
		{
			"bufferView":4,
			"componentType":5123,
			"count":324,
			"type":"SCALAR"
		},
		{
			"bufferView":5,
			"componentType":5126,
			"count":964,
			"max":[
				0.6717514395713806,
				17.19999885559082,
				0.1287500113248825
			],
			"min":[
				-0.6717514395713806,
				3.119999885559082,
				-1.25175142288208
			],
			"type":"VEC3"
		},
		{
			"bufferView":6,
			"componentType":5126,
			"count":964,
			"type":"VEC3"
		},
		{
			"bufferView":7,
			"componentType":5126,
			"count":964,
			"type":"VEC2"
		},
		{
			"bufferView":8,
			"componentType":5123,
			"count":964,
			"normalized":true,
			"type":"VEC4"
		},
		{
			"bufferView":9,
			"componentType":5123,
			"count":2646,
			"type":"SCALAR"
		}
	],
	"bufferViews":[
		{
			"buffer":0,
			"byteLength":1152,
			"byteOffset":0,
			"target":34962
		},
		{
			"buffer":0,
			"byteLength":1152,
			"byteOffset":1152,
			"target":34962
		},
		{
			"buffer":0,
			"byteLength":768,
			"byteOffset":2304,
			"target":34962
		},
		{
			"buffer":0,
			"byteLength":768,
			"byteOffset":3072,
			"target":34962
		},
		{
			"buffer":0,
			"byteLength":648,
			"byteOffset":3840,
			"target":34963
		},
		{
			"buffer":0,
			"byteLength":11568,
			"byteOffset":4488,
			"target":34962
		},
		{
			"buffer":0,
			"byteLength":11568,
			"byteOffset":16056,
			"target":34962
		},
		{
			"buffer":0,
			"byteLength":7712,
			"byteOffset":27624,
			"target":34962
		},
		{
			"buffer":0,
			"byteLength":7712,
			"byteOffset":35336,
			"target":34962
		},
		{
			"buffer":0,
			"byteLength":5292,
			"byteOffset":43048,
			"target":34963
		}
	],
	"buffers":[
		{
			"byteLength":48340,
			"uri":"palisade_post.bin"
		}
	]
}
