{
	"asset":{
		"generator":"Khronos glTF Blender I/O v5.2.40",
		"version":"2.0"
	},
	"scene":0,
	"scenes":[
		{
			"name":"Scene",
			"nodes":[
				0
			]
		}
	],
	"nodes":[
		{
			"mesh":0,
			"name":"bay_bannered"
		}
	],
	"materials":[
		{
			"doubleSided":true,
			"name":"timber",
			"pbrMetallicRoughness":{
				"baseColorFactor":[
					0.800000011920929,
					0.800000011920929,
					0.800000011920929,
					1
				],
				"metallicFactor":0,
				"roughnessFactor":0.5
			}
		},
		{
			"doubleSided":true,
			"name":"iron",
			"pbrMetallicRoughness":{
				"baseColorFactor":[
					0.800000011920929,
					0.800000011920929,
					0.800000011920929,
					1
				],
				"metallicFactor":0,
				"roughnessFactor":0.5
			}
		},
		{
			"doubleSided":true,
			"name":"plank",
			"pbrMetallicRoughness":{
				"baseColorFactor":[
					0.800000011920929,
					0.800000011920929,
					0.800000011920929,
					1
				],
				"metallicFactor":0,
				"roughnessFactor":0.5
			}
		}
	],
	"meshes":[
		{
			"name":"t",
			"primitives":[
				{
					"attributes":{
						"POSITION":0,
						"NORMAL":1,
						"TEXCOORD_0":2,
						"COLOR_0":3
					},
					"indices":4,
					"material":0
				},
				{
					"attributes":{
						"POSITION":5,
						"NORMAL":6,
						"TEXCOORD_0":7,
						"COLOR_0":8
					},
					"indices":9,
					"material":1
				},
				{
					"attributes":{
						"POSITION":10,
						"NORMAL":11,
						"TEXCOORD_0":12,
						"COLOR_0":13
					},
					"indices":14,
					"material":2
				}
			]
		}
	],
	"accessors":[
		{
			"bufferView":0,
			"componentType":5126,
			"count":672,
			"max":[
				3.859999895095825,
				14.600000381469727,
				-0.009999990463256836
			],
			"min":[
				-3.859999895095825,
				0.017630577087402344,
				-1.6800004243850708
			],
			"type":"VEC3"
		},
		{
			"bufferView":1,
			"componentType":5126,
			"count":672,
			"type":"VEC3"
		},
		{
			"bufferView":2,
			"componentType":5126,
			"count":672,
			"type":"VEC2"
		},
		{
			"bufferView":3,
			"componentType":5123,
			"count":672,
			"normalized":true,
			"type":"VEC4"
		},
		{
			"bufferView":4,
			"componentType":5123,
			"count":2268,
			"type":"SCALAR"
		},
		{
			"bufferView":5,
			"componentType":5126,
			"count":2598,
			"max":[
				2.7300000190734863,
				13.460000038146973,
				0.08349999785423279
			],
			"min":[
				-3.323333263397217,
				0.019999980926513672,
				-0.862500011920929
			],
			"type":"VEC3"
		},
		{
			"bufferView":6,
			"componentType":5126,
			"count":2598,
			"type":"VEC3"
		},
		{
			"bufferView":7,
			"componentType":5126,
			"count":2598,
			"type":"VEC2"
		},
		{
			"bufferView":8,
			"componentType":5123,
			"count":2598,
			"normalized":true,
			"type":"VEC4"
		},
		{
			"bufferView":9,
			"componentType":5123,
			"count":6768,
			"type":"SCALAR"
		},
		{
			"bufferView":10,
			"componentType":5126,
			"count":1152,
			"max":[
				3.5564823150634766,
				14.440279006958008,
				-1.3516035079956055
			],
			"min":[
				-3.5570085048675537,
				3.148616313934326,
				-1.5492335557937622
			],
			"type":"VEC3"
		},
		{
			"bufferView":11,
			"componentType":5126,
			"count":1152,
			"type":"VEC3"
		},
		{
			"bufferView":12,
			"componentType":5126,
			"count":1152,
			"type":"VEC2"
		},
		{
			"bufferView":13,
			"componentType":5123,
			"count":1152,
			"normalized":true,
			"type":"VEC4"
		},
		{
			"bufferView":14,
			"componentType":5123,
			"count":3888,
			"type":"SCALAR"
		}
	],
	"bufferViews":[
		{
			"buffer":0,
			"byteLength":8064,
			"byteOffset":0,
			"target":34962
		},
		{
			"buffer":0,
			"byteLength":8064,
			"byteOffset":8064,
			"target":34962
		},
		{
			"buffer":0,
			"byteLength":5376,
			"byteOffset":16128,
			"target":34962
		},
		{
			"buffer":0,
			"byteLength":5376,
			"byteOffset":21504,
			"target":34962
		},
		{
			"buffer":0,
			"byteLength":4536,
			"byteOffset":26880,
			"target":34963
		},
		{
			"buffer":0,
			"byteLength":31176,
			"byteOffset":31416,
			"target":34962
		},
		{
			"buffer":0,
			"byteLength":31176,
			"byteOffset":62592,
			"target":34962
		},
		{
			"buffer":0,
			"byteLength":20784,
			"byteOffset":93768,
			"target":34962
		},
		{
			"buffer":0,
			"byteLength":20784,
			"byteOffset":114552,
			"target":34962
		},
		{
			"buffer":0,
			"byteLength":13536,
			"byteOffset":135336,
			"target":34963
		},
		{
			"buffer":0,
			"byteLength":13824,
			"byteOffset":148872,
			"target":34962
		},
		{
			"buffer":0,
			"byteLength":13824,
			"byteOffset":162696,
			"target":34962
		},
		{
			"buffer":0,
			"byteLength":9216,
			"byteOffset":176520,
			"target":34962
		},
		{
			"buffer":0,
			"byteLength":9216,
			"byteOffset":185736,
			"target":34962
		},
		{
			"buffer":0,
			"byteLength":7776,
			"byteOffset":194952,
			"target":34963
		}
	],
	"buffers":[
		{
			"byteLength":202728,
			"uri":"palisade_bay_bannered.bin"
		}
	]
}
