{
	"asset":{
		"generator":"Khronos glTF Blender I/O v5.2.40",
		"version":"2.0"
	},
	"scene":0,
	"scenes":[
		{
			"name":"Scene",
			"nodes":[
				0
			]
		}
	],
	"nodes":[
		{
			"mesh":0,
			"name":"corner_post"
		}
	],
	"materials":[
		{
			"doubleSided":true,
			"name":"timber",
			"pbrMetallicRoughness":{
				"baseColorFactor":[
					0.800000011920929,
					0.800000011920929,
					0.800000011920929,
					1
				],
				"metallicFactor":0,
				"roughnessFactor":0.5
			}
		},
		{
			"doubleSided":true,
			"name":"iron",
			"pbrMetallicRoughness":{
				"baseColorFactor":[
					0.800000011920929,
					0.800000011920929,
					0.800000011920929,
					1
				],
				"metallicFactor":0,
				"roughnessFactor":0.5
			}
		}
	],
	"meshes":[
		{
			"name":"Cylinder",
			"primitives":[
				{
					"attributes":{
						"POSITION":0,
						"NORMAL":1,
						"TEXCOORD_0":2,
						"COLOR_0":3
					},
					"indices":4,
					"material":0
				},
				{
					"attributes":{
						"POSITION":5,
						"NORMAL":6,
						"TEXCOORD_0":7,
						"COLOR_0":8
					},
					"indices":9,
					"material":1
				}
			]
		}
	],
	"accessors":[
		{
			"bufferView":0,
			"componentType":5126,
			"count":82,
			"max":[
				0.9200000166893005,
				17.600000381469727,
				-0.029999971389770508
			],
			"min":[
				-0.9200000166893005,
				-1,
				-1.8700000047683716
			],
			"type":"VEC3"
		},
		{
			"bufferView":1,
			"componentType":5126,
			"count":82,
			"type":"VEC3"
		},
		{
			"bufferView":2,
			"componentType":5126,
			"count":82,
			"type":"VEC2"
		},
		{
			"bufferView":3,
			"componentType":5123,
			"count":82,
			"normalized":true,
			"type":"VEC4"
		},
		{
			"bufferView":4,
			"componentType":5123,
			"count":228,
			"type":"SCALAR"
		},
		{
			"bufferView":5,
			"componentType":5126,
			"count":328,
			"max":[
				0.9700000286102295,
				16.92999839782715,
				0.020000040531158447
			],
			"min":[
				-0.9700000286102295,
				1.8700000047683716,
				-1.9200000762939453
			],
			"type":"VEC3"
		},
		{
			"bufferView":6,
			"componentType":5126,
			"count":328,
			"type":"VEC3"
		},
		{
			"bufferView":7,
			"componentType":5126,
			"count":328,
			"type":"VEC2"
		},
		{
			"bufferView":8,
			"componentType":5123,
			"count":328,
			"normalized":true,
			"type":"VEC4"
		},
		{
			"bufferView":9,
			"componentType":5123,
			"count":912,
			"type":"SCALAR"
		}
	],
	"bufferViews":[
		{
			"buffer":0,
			"byteLength":984,
			"byteOffset":0,
			"target":34962
		},
		{
			"buffer":0,
			"byteLength":984,
			"byteOffset":984,
			"target":34962
		},
		{
			"buffer":0,
			"byteLength":656,
			"byteOffset":1968,
			"target":34962
		},
		{
			"buffer":0,
			"byteLength":656,
			"byteOffset":2624,
			"target":34962
		},
		{
			"buffer":0,
			"byteLength":456,
			"byteOffset":3280,
			"target":34963
		},
		{
			"buffer":0,
			"byteLength":3936,
			"byteOffset":3736,
			"target":34962
		},
		{
			"buffer":0,
			"byteLength":3936,
			"byteOffset":7672,
			"target":34962
		},
		{
			"buffer":0,
			"byteLength":2624,
			"byteOffset":11608,
			"target":34962
		},
		{
			"buffer":0,
			"byteLength":2624,
			"byteOffset":14232,
			"target":34962
		},
		{
			"buffer":0,
			"byteLength":1824,
			"byteOffset":16856,
			"target":34963
		}
	],
	"buffers":[
		{
			"byteLength":18680,
			"uri":"palisade_corner_post.bin"
		}
	]
}
