{
	"asset":{
		"generator":"Khronos glTF Blender I/O v5.2.40",
		"version":"2.0"
	},
	"scene":0,
	"scenes":[
		{
			"name":"Scene",
			"nodes":[
				0,
				1,
				2,
				3
			]
		}
	],
	"nodes":[
		{
			"mesh":0,
			"name":"fern_0"
		},
		{
			"mesh":1,
			"name":"fern_1"
		},
		{
			"mesh":2,
			"name":"fern_2"
		},
		{
			"mesh":3,
			"name":"fern_3"
		}
	],
	"materials":[
		{
			"alphaMode":"MASK",
			"doubleSided":true,
			"name":"fern_02",
			"normalTexture":{
				"index":0
			},
			"pbrMetallicRoughness":{
				"baseColorTexture":{
					"index":1
				},
				"metallicFactor":0,
				"metallicRoughnessTexture":{
					"index":2
				}
			}
		}
	],
	"meshes":[
		{
			"name":"Plane.006",
			"primitives":[
				{
					"attributes":{
						"POSITION":0,
						"NORMAL":1,
						"TEXCOORD_0":2
					},
					"indices":3,
					"material":0
				}
			]
		},
		{
			"name":"Plane.024",
			"primitives":[
				{
					"attributes":{
						"POSITION":4,
						"NORMAL":5,
						"TEXCOORD_0":6
					},
					"indices":7,
					"material":0
				}
			]
		},
		{
			"name":"Plane.044",
			"primitives":[
				{
					"attributes":{
						"POSITION":8,
						"NORMAL":9,
						"TEXCOORD_0":10
					},
					"indices":11,
					"material":0
				}
			]
		},
		{
			"name":"Plane.059",
			"primitives":[
				{
					"attributes":{
						"POSITION":12,
						"NORMAL":13,
						"TEXCOORD_0":14
					},
					"indices":15,
					"material":0
				}
			]
		}
	],
	"textures":[
		{
			"sampler":0,
			"source":0
		},
		{
			"sampler":0,
			"source":1
		},
		{
			"sampler":0,
			"source":2
		}
	],
	"images":[
		{
			"mimeType":"image/jpeg",
			"name":"fern_02_nor_gl_1k",
			"uri":"fern_02_nor_gl_1k.jpg"
		},
		{
			"mimeType":"image/png",
			"name":"fern_02_diff_1k",
			"uri":"fern_02_diff_1k.png"
		},
		{
			"mimeType":"image/jpeg",
			"name":"fern_02_arm_1k",
			"uri":"fern_02_arm_1k.jpg"
		}
	],
	"accessors":[
		{
			"bufferView":0,
			"componentType":5126,
			"count":546,
			"max":[
				0.27597030997276306,
				0.28680354356765747,
				0.30671054124832153
			],
			"min":[
				-0.27597030997276306,
				0,
				-0.30671054124832153
			],
			"type":"VEC3"
		},
		{
			"bufferView":1,
			"componentType":5126,
			"count":546,
			"type":"VEC3"
		},
		{
			"bufferView":2,
			"componentType":5126,
			"count":546,
			"type":"VEC2"
		},
		{
			"bufferView":3,
			"componentType":5123,
			"count":2352,
			"type":"SCALAR"
		},
		{
			"bufferView":4,
			"componentType":5126,
			"count":1225,
			"max":[
				0.4954654574394226,
				0.427694708108902,
				0.44767090678215027
			],
			"min":[
				-0.49487370252609253,
				0,
				-0.4468448758125305
			],
			"type":"VEC3"
		},
		{
			"bufferView":5,
			"componentType":5126,
			"count":1225,
			"type":"VEC3"
		},
		{
			"bufferView":6,
			"componentType":5126,
			"count":1225,
			"type":"VEC2"
		},
		{
			"bufferView":7,
			"componentType":5123,
			"count":4800,
			"type":"SCALAR"
		},
		{
			"bufferView":8,
			"componentType":5126,
			"count":1221,
			"max":[
				0.4380202293395996,
				0.3494546115398407,
				0.3828255832195282
			],
			"min":[
				-0.4371629059314728,
				0,
				-0.3825848400592804
			],
			"type":"VEC3"
		},
		{
			"bufferView":9,
			"componentType":5126,
			"count":1221,
			"type":"VEC3"
		},
		{
			"bufferView":10,
			"componentType":5126,
			"count":1221,
			"type":"VEC2"
		},
		{
			"bufferView":11,
			"componentType":5123,
			"count":4800,
			"type":"SCALAR"
		},
		{
			"bufferView":12,
			"componentType":5126,
			"count":573,
			"max":[
				0.28639107942581177,
				0.2130875587463379,
				0.2966391444206238
			],
			"min":[
				-0.28639107942581177,
				0,
				-0.2966391444206238
			],
			"type":"VEC3"
		},
		{
			"bufferView":13,
			"componentType":5126,
			"count":573,
			"type":"VEC3"
		},
		{
			"bufferView":14,
			"componentType":5126,
			"count":573,
			"type":"VEC2"
		},
		{
			"bufferView":15,
			"componentType":5123,
			"count":2448,
			"type":"SCALAR"
		}
	],
	"bufferViews":[
		{
			"buffer":0,
			"byteLength":6552,
			"byteOffset":0,
			"target":34962
		},
		{
			"buffer":0,
			"byteLength":6552,
			"byteOffset":6552,
			"target":34962
		},
		{
			"buffer":0,
			"byteLength":4368,
			"byteOffset":13104,
			"target":34962
		},
		{
			"buffer":0,
			"byteLength":4704,
			"byteOffset":17472,
			"target":34963
		},
		{
			"buffer":0,
			"byteLength":14700,
			"byteOffset":22176,
			"target":34962
		},
		{
			"buffer":0,
			"byteLength":14700,
			"byteOffset":36876,
			"target":34962
		},
		{
			"buffer":0,
			"byteLength":9800,
			"byteOffset":51576,
			"target":34962
		},
		{
			"buffer":0,
			"byteLength":9600,
			"byteOffset":61376,
			"target":34963
		},
		{
			"buffer":0,
			"byteLength":14652,
			"byteOffset":70976,
			"target":34962
		},
		{
			"buffer":0,
			"byteLength":14652,
			"byteOffset":85628,
			"target":34962
		},
		{
			"buffer":0,
			"byteLength":9768,
			"byteOffset":100280,
			"target":34962
		},
		{
			"buffer":0,
			"byteLength":9600,
			"byteOffset":110048,
			"target":34963
		},
		{
			"buffer":0,
			"byteLength":6876,
			"byteOffset":119648,
			"target":34962
		},
		{
			"buffer":0,
			"byteLength":6876,
			"byteOffset":126524,
			"target":34962
		},
		{
			"buffer":0,
			"byteLength":4584,
			"byteOffset":133400,
			"target":34962
		},
		{
			"buffer":0,
			"byteLength":4896,
			"byteOffset":137984,
			"target":34963
		}
	],
	"samplers":[
		{
			"magFilter":9729,
			"minFilter":9987
		}
	],
	"buffers":[
		{
			"byteLength":142880,
			"uri":"scatter_fern.bin"
		}
	]
}
