{
	"asset":{
		"generator":"Khronos glTF Blender I/O v5.2.40",
		"version":"2.0"
	},
	"scene":0,
	"scenes":[
		{
			"name":"Scene",
			"nodes":[
				0,
				1,
				2,
				3
			]
		}
	],
	"nodes":[
		{
			"mesh":0,
			"name":"pebble_0"
		},
		{
			"mesh":1,
			"name":"pebble_1"
		},
		{
			"mesh":2,
			"name":"pebble_2"
		},
		{
			"mesh":3,
			"name":"pebble_3"
		}
	],
	"materials":[
		{
			"doubleSided":true,
			"name":"scatter_pebbles",
			"normalTexture":{
				"index":0
			},
			"pbrMetallicRoughness":{
				"baseColorTexture":{
					"index":1
				},
				"metallicFactor":0,
				"metallicRoughnessTexture":{
					"index":2
				}
			}
		}
	],
	"meshes":[
		{
			"name":"realCap_Model_2.001",
			"primitives":[
				{
					"attributes":{
						"POSITION":0,
						"NORMAL":1,
						"TEXCOORD_0":2
					},
					"indices":3,
					"material":0
				}
			]
		},
		{
			"name":"realCap_Model_2.003",
			"primitives":[
				{
					"attributes":{
						"POSITION":4,
						"NORMAL":5,
						"TEXCOORD_0":6
					},
					"indices":7,
					"material":0
				}
			]
		},
		{
			"name":"realCap_Model_2.004",
			"primitives":[
				{
					"attributes":{
						"POSITION":8,
						"NORMAL":9,
						"TEXCOORD_0":10
					},
					"indices":11,
					"material":0
				}
			]
		},
		{
			"name":"realCap_Model_2.005",
			"primitives":[
				{
					"attributes":{
						"POSITION":12,
						"NORMAL":13,
						"TEXCOORD_0":14
					},
					"indices":15,
					"material":0
				}
			]
		}
	],
	"textures":[
		{
			"sampler":0,
			"source":0
		},
		{
			"sampler":0,
			"source":1
		},
		{
			"sampler":0,
			"source":2
		}
	],
	"images":[
		{
			"mimeType":"image/jpeg",
			"name":"scatter_pebbles_nor",
			"uri":"scatter_pebbles_nor.jpg"
		},
		{
			"mimeType":"image/jpeg",
			"name":"namaqualand_rocks_01_diff_2k",
			"uri":"namaqualand_rocks_01_diff_2k.jpg"
		},
		{
			"mimeType":"image/jpeg",
			"name":"namaqualand_rocks_01_arm_2k",
			"uri":"namaqualand_rocks_01_arm_2k.jpg"
		}
	],
	"accessors":[
		{
			"bufferView":0,
			"componentType":5126,
			"count":281,
			"max":[
				0.11332966387271881,
				0.14976128935813904,
				0.10782061517238617
			],
			"min":[
				-0.11510248482227325,
				-0.0018638643668964505,
				-0.10729457437992096
			],
			"type":"VEC3"
		},
		{
			"bufferView":1,
			"componentType":5126,
			"count":281,
			"type":"VEC3"
		},
		{
			"bufferView":2,
			"componentType":5126,
			"count":281,
			"type":"VEC2"
		},
		{
			"bufferView":3,
			"componentType":5123,
			"count":1077,
			"type":"SCALAR"
		},
		{
			"bufferView":4,
			"componentType":5126,
			"count":279,
			"max":[
				0.10770010948181152,
				0.08174561709165573,
				0.0808035209774971
			],
			"min":[
				-0.11018838733434677,
				0.0009862800361588597,
				-0.08107389509677887
			],
			"type":"VEC3"
		},
		{
			"bufferView":5,
			"componentType":5126,
			"count":279,
			"type":"VEC3"
		},
		{
			"bufferView":6,
			"componentType":5126,
			"count":279,
			"type":"VEC2"
		},
		{
			"bufferView":7,
			"componentType":5123,
			"count":1080,
			"type":"SCALAR"
		},
		{
			"bufferView":8,
			"componentType":5126,
			"count":281,
			"max":[
				0.10491251200437546,
				0.08423493802547455,
				0.0824657753109932
			],
			"min":[
				-0.10676106810569763,
				-0.0003702030226122588,
				-0.08216060698032379
			],
			"type":"VEC3"
		},
		{
			"bufferView":9,
			"componentType":5126,
			"count":281,
			"type":"VEC3"
		},
		{
			"bufferView":10,
			"componentType":5126,
			"count":281,
			"type":"VEC2"
		},
		{
			"bufferView":11,
			"componentType":5123,
			"count":1077,
			"type":"SCALAR"
		},
		{
			"bufferView":12,
			"componentType":5126,
			"count":250,
			"max":[
				0.10006269067525864,
				0.12399963289499283,
				0.07810873538255692
			],
			"min":[
				-0.09816067665815353,
				0.0012178309261798859,
				-0.07724639773368835
			],
			"type":"VEC3"
		},
		{
			"bufferView":13,
			"componentType":5126,
			"count":250,
			"type":"VEC3"
		},
		{
			"bufferView":14,
			"componentType":5126,
			"count":250,
			"type":"VEC2"
		},
		{
			"bufferView":15,
			"componentType":5123,
			"count":1077,
			"type":"SCALAR"
		}
	],
	"bufferViews":[
		{
			"buffer":0,
			"byteLength":3372,
			"byteOffset":0,
			"target":34962
		},
		{
			"buffer":0,
			"byteLength":3372,
			"byteOffset":3372,
			"target":34962
		},
		{
			"buffer":0,
			"byteLength":2248,
			"byteOffset":6744,
			"target":34962
		},
		{
			"buffer":0,
			"byteLength":2154,
			"byteOffset":8992,
			"target":34963
		},
		{
			"buffer":0,
			"byteLength":3348,
			"byteOffset":11148,
			"target":34962
		},
		{
			"buffer":0,
			"byteLength":3348,
			"byteOffset":14496,
			"target":34962
		},
		{
			"buffer":0,
			"byteLength":2232,
			"byteOffset":17844,
			"target":34962
		},
		{
			"buffer":0,
			"byteLength":2160,
			"byteOffset":20076,
			"target":34963
		},
		{
			"buffer":0,
			"byteLength":3372,
			"byteOffset":22236,
			"target":34962
		},
		{
			"buffer":0,
			"byteLength":3372,
			"byteOffset":25608,
			"target":34962
		},
		{
			"buffer":0,
			"byteLength":2248,
			"byteOffset":28980,
			"target":34962
		},
		{
			"buffer":0,
			"byteLength":2154,
			"byteOffset":31228,
			"target":34963
		},
		{
			"buffer":0,
			"byteLength":3000,
			"byteOffset":33384,
			"target":34962
		},
		{
			"buffer":0,
			"byteLength":3000,
			"byteOffset":36384,
			"target":34962
		},
		{
			"buffer":0,
			"byteLength":2000,
			"byteOffset":39384,
			"target":34962
		},
		{
			"buffer":0,
			"byteLength":2154,
			"byteOffset":41384,
			"target":34963
		}
	],
	"samplers":[
		{
			"magFilter":9729,
			"minFilter":9987
		}
	],
	"buffers":[
		{
			"byteLength":43540,
			"uri":"scatter_pebbles.bin"
		}
	]
}
