{
	"asset":{
		"generator":"Khronos glTF Blender I/O v5.2.40",
		"version":"2.0"
	},
	"scene":0,
	"scenes":[
		{
			"name":"Scene",
			"nodes":[
				0,
				1,
				2,
				3,
				4,
				5,
				6,
				7,
				8,
				9,
				10,
				11,
				12,
				13,
				14,
				15,
				16,
				17,
				18,
				19,
				20,
				21
			]
		}
	],
	"nodes":[
		{
			"mesh":0,
			"name":"grass_0"
		},
		{
			"mesh":1,
			"name":"grass_1"
		},
		{
			"mesh":2,
			"name":"grass_2"
		},
		{
			"mesh":3,
			"name":"grass_3"
		},
		{
			"mesh":4,
			"name":"grass_4"
		},
		{
			"mesh":5,
			"name":"grass_5"
		},
		{
			"mesh":6,
			"name":"grass_6"
		},
		{
			"mesh":7,
			"name":"grass_7"
		},
		{
			"mesh":8,
			"name":"grass_8"
		},
		{
			"mesh":9,
			"name":"grass_9"
		},
		{
			"mesh":10,
			"name":"grass_10"
		},
		{
			"mesh":11,
			"name":"grass_11"
		},
		{
			"mesh":12,
			"name":"grass_12"
		},
		{
			"mesh":13,
			"name":"grass_13"
		},
		{
			"mesh":14,
			"name":"grass_14"
		},
		{
			"mesh":15,
			"name":"grass_15"
		},
		{
			"mesh":16,
			"name":"grass_16"
		},
		{
			"mesh":17,
			"name":"grass_17"
		},
		{
			"mesh":18,
			"name":"grass_18"
		},
		{
			"mesh":19,
			"name":"grass_19"
		},
		{
			"mesh":20,
			"name":"grass_20"
		},
		{
			"mesh":21,
			"name":"grass_21"
		}
	],
	"materials":[
		{
			"alphaMode":"BLEND",
			"doubleSided":true,
			"name":"grass_medium_01",
			"normalTexture":{
				"index":0
			},
			"pbrMetallicRoughness":{
				"baseColorTexture":{
					"index":1
				},
				"metallicFactor":0,
				"metallicRoughnessTexture":{
					"index":2
				}
			}
		},
		{
			"alphaMode":"BLEND",
			"doubleSided":true,
			"name":"grass_medium_02",
			"normalTexture":{
				"index":3
			},
			"pbrMetallicRoughness":{
				"baseColorTexture":{
					"index":4
				},
				"metallicFactor":0,
				"metallicRoughnessTexture":{
					"index":5
				}
			}
		}
	],
	"meshes":[
		{
			"name":"Plane.051",
			"primitives":[
				{
					"attributes":{
						"POSITION":0,
						"NORMAL":1,
						"TEXCOORD_0":2
					},
					"indices":3,
					"material":0
				}
			]
		},
		{
			"name":"Plane.038",
			"primitives":[
				{
					"attributes":{
						"POSITION":4,
						"NORMAL":5,
						"TEXCOORD_0":6
					},
					"indices":7,
					"material":0
				}
			]
		},
		{
			"name":"Plane.053",
			"primitives":[
				{
					"attributes":{
						"POSITION":8,
						"NORMAL":9,
						"TEXCOORD_0":10
					},
					"indices":11,
					"material":0
				}
			]
		},
		{
			"name":"Plane.050",
			"primitives":[
				{
					"attributes":{
						"POSITION":12,
						"NORMAL":13,
						"TEXCOORD_0":14
					},
					"indices":15,
					"material":0
				}
			]
		},
		{
			"name":"Plane.039",
			"primitives":[
				{
					"attributes":{
						"POSITION":16,
						"NORMAL":17,
						"TEXCOORD_0":18
					},
					"indices":19,
					"material":0
				}
			]
		},
		{
			"name":"Plane.048",
			"primitives":[
				{
					"attributes":{
						"POSITION":20,
						"NORMAL":21,
						"TEXCOORD_0":22
					},
					"indices":23,
					"material":0
				}
			]
		},
		{
			"name":"Plane.037",
			"primitives":[
				{
					"attributes":{
						"POSITION":24,
						"NORMAL":25,
						"TEXCOORD_0":26
					},
					"indices":27,
					"material":0
				}
			]
		},
		{
			"name":"Plane.047",
			"primitives":[
				{
					"attributes":{
						"POSITION":28,
						"NORMAL":29,
						"TEXCOORD_0":30
					},
					"indices":31,
					"material":0
				}
			]
		},
		{
			"name":"Plane.043",
			"primitives":[
				{
					"attributes":{
						"POSITION":32,
						"NORMAL":33,
						"TEXCOORD_0":34
					},
					"indices":35,
					"material":0
				}
			]
		},
		{
			"name":"Plane.042",
			"primitives":[
				{
					"attributes":{
						"POSITION":36,
						"NORMAL":37,
						"TEXCOORD_0":38
					},
					"indices":39,
					"material":0
				}
			]
		},
		{
			"name":"Plane.045",
			"primitives":[
				{
					"attributes":{
						"POSITION":40,
						"NORMAL":41,
						"TEXCOORD_0":42
					},
					"indices":43,
					"material":0
				}
			]
		},
		{
			"name":"Plane.055",
			"primitives":[
				{
					"attributes":{
						"POSITION":44,
						"NORMAL":45,
						"TEXCOORD_0":46
					},
					"indices":47,
					"material":0
				}
			]
		},
		{
			"name":"Plane.056",
			"primitives":[
				{
					"attributes":{
						"POSITION":48,
						"NORMAL":49,
						"TEXCOORD_0":50
					},
					"indices":51,
					"material":0
				}
			]
		},
		{
			"name":"Plane.054",
			"primitives":[
				{
					"attributes":{
						"POSITION":52,
						"NORMAL":53,
						"TEXCOORD_0":54
					},
					"indices":55,
					"material":0
				}
			]
		},
		{
			"name":"Plane.057",
			"primitives":[
				{
					"attributes":{
						"POSITION":56,
						"NORMAL":57,
						"TEXCOORD_0":58
					},
					"indices":59,
					"material":0
				}
			]
		},
		{
			"name":"Plane.058",
			"primitives":[
				{
					"attributes":{
						"POSITION":60,
						"NORMAL":61,
						"TEXCOORD_0":62
					},
					"indices":63,
					"material":0
				}
			]
		},
		{
			"name":"Plane.059",
			"primitives":[
				{
					"attributes":{
						"POSITION":64,
						"NORMAL":65,
						"TEXCOORD_0":66
					},
					"indices":67,
					"material":0
				}
			]
		},
		{
			"name":"Plane.001",
			"primitives":[
				{
					"attributes":{
						"POSITION":68,
						"NORMAL":69,
						"TEXCOORD_0":70
					},
					"indices":71,
					"material":1
				}
			]
		},
		{
			"name":"Plane.002",
			"primitives":[
				{
					"attributes":{
						"POSITION":72,
						"NORMAL":73,
						"TEXCOORD_0":74
					},
					"indices":75,
					"material":1
				}
			]
		},
		{
			"name":"Plane.003",
			"primitives":[
				{
					"attributes":{
						"POSITION":76,
						"NORMAL":77,
						"TEXCOORD_0":78
					},
					"indices":79,
					"material":1
				}
			]
		},
		{
			"name":"Plane.004",
			"primitives":[
				{
					"attributes":{
						"POSITION":80,
						"NORMAL":81,
						"TEXCOORD_0":82
					},
					"indices":83,
					"material":1
				}
			]
		},
		{
			"name":"Plane.005",
			"primitives":[
				{
					"attributes":{
						"POSITION":84,
						"NORMAL":85,
						"TEXCOORD_0":86
					},
					"indices":87,
					"material":1
				}
			]
		}
	],
	"textures":[
		{
			"sampler":0,
			"source":0
		},
		{
			"sampler":0,
			"source":1
		},
		{
			"sampler":0,
			"source":2
		},
		{
			"sampler":0,
			"source":3
		},
		{
			"sampler":0,
			"source":4
		},
		{
			"sampler":0,
			"source":5
		}
	],
	"images":[
		{
			"mimeType":"image/jpeg",
			"name":"grass_medium_01_nor_gl_1k",
			"uri":"grass_medium_01_nor_gl_1k.jpg"
		},
		{
			"mimeType":"image/png",
			"name":"grass_medium_01_diff_1k",
			"uri":"grass_medium_01_diff_1k.png"
		},
		{
			"mimeType":"image/jpeg",
			"name":"grass_medium_01_arm_1k",
			"uri":"grass_medium_01_arm_1k.jpg"
		},
		{
			"mimeType":"image/jpeg",
			"name":"grass_medium_02_nor_gl_1k",
			"uri":"grass_medium_02_nor_gl_1k.jpg"
		},
		{
			"mimeType":"image/png",
			"name":"grass_medium_02_diff_1k",
			"uri":"grass_medium_02_diff_1k.png"
		},
		{
			"mimeType":"image/jpeg",
			"name":"grass_medium_02_arm_1k",
			"uri":"grass_medium_02_arm_1k.jpg"
		}
	],
	"accessors":[
		{
			"bufferView":0,
			"componentType":5126,
			"count":2568,
			"max":[
				0.1593702882528305,
				0.1458386778831482,
				0.1623912900686264
			],
			"min":[
				-0.15882383286952972,
				0.00041811843402683735,
				-0.16418342292308807
			],
			"type":"VEC3"
		},
		{
			"bufferView":1,
			"componentType":5126,
			"count":2568,
			"type":"VEC3"
		},
		{
			"bufferView":2,
			"componentType":5126,
			"count":2568,
			"type":"VEC2"
		},
		{
			"bufferView":3,
			"componentType":5123,
			"count":5400,
			"type":"SCALAR"
		},
		{
			"bufferView":4,
			"componentType":5126,
			"count":2100,
			"max":[
				0.14222119748592377,
				0.16897349059581757,
				0.13622982800006866
			],
			"min":[
				-0.13645051419734955,
				-0.00021230791753623635,
				-0.13602955639362335
			],
			"type":"VEC3"
		},
		{
			"bufferView":5,
			"componentType":5126,
			"count":2100,
			"type":"VEC3"
		},
		{
			"bufferView":6,
			"componentType":5126,
			"count":2100,
			"type":"VEC2"
		},
		{
			"bufferView":7,
			"componentType":5123,
			"count":5400,
			"type":"SCALAR"
		},
		{
			"bufferView":8,
			"componentType":5126,
			"count":2430,
			"max":[
				0.139162078499794,
				0.14170853793621063,
				0.12716692686080933
			],
			"min":[
				-0.13960416615009308,
				1.9154165784129873e-05,
				-0.12756048142910004
			],
			"type":"VEC3"
		},
		{
			"bufferView":9,
			"componentType":5126,
			"count":2430,
			"type":"VEC3"
		},
		{
			"bufferView":10,
			"componentType":5126,
			"count":2430,
			"type":"VEC2"
		},
		{
			"bufferView":11,
			"componentType":5123,
			"count":5400,
			"type":"SCALAR"
		},
		{
			"bufferView":12,
			"componentType":5126,
			"count":2108,
			"max":[
				0.10780763626098633,
				0.21774429082870483,
				0.1106889396905899
			],
			"min":[
				-0.10780763626098633,
				0,
				-0.1106889396905899
			],
			"type":"VEC3"
		},
		{
			"bufferView":13,
			"componentType":5126,
			"count":2108,
			"type":"VEC3"
		},
		{
			"bufferView":14,
			"componentType":5126,
			"count":2108,
			"type":"VEC2"
		},
		{
			"bufferView":15,
			"componentType":5123,
			"count":5400,
			"type":"SCALAR"
		},
		{
			"bufferView":16,
			"componentType":5126,
			"count":1388,
			"max":[
				0.09389442205429077,
				0.17772157490253448,
				0.10051430016756058
			],
			"min":[
				-0.09389442205429077,
				0,
				-0.10051430016756058
			],
			"type":"VEC3"
		},
		{
			"bufferView":17,
			"componentType":5126,
			"count":1388,
			"type":"VEC3"
		},
		{
			"bufferView":18,
			"componentType":5126,
			"count":1388,
			"type":"VEC2"
		},
		{
			"bufferView":19,
			"componentType":5123,
			"count":3771,
			"type":"SCALAR"
		},
		{
			"bufferView":20,
			"componentType":5126,
			"count":1592,
			"max":[
				0.0961652398109436,
				0.1446356624364853,
				0.10142773389816284
			],
			"min":[
				-0.0961652398109436,
				0,
				-0.10142773389816284
			],
			"type":"VEC3"
		},
		{
			"bufferView":21,
			"componentType":5126,
			"count":1592,
			"type":"VEC3"
		},
		{
			"bufferView":22,
			"componentType":5126,
			"count":1592,
			"type":"VEC2"
		},
		{
			"bufferView":23,
			"componentType":5123,
			"count":4398,
			"type":"SCALAR"
		},
		{
			"bufferView":24,
			"componentType":5126,
			"count":893,
			"max":[
				0.0924200564622879,
				0.14042668044567108,
				0.08115652203559875
			],
			"min":[
				-0.0924200564622879,
				0,
				-0.08115652203559875
			],
			"type":"VEC3"
		},
		{
			"bufferView":25,
			"componentType":5126,
			"count":893,
			"type":"VEC3"
		},
		{
			"bufferView":26,
			"componentType":5126,
			"count":893,
			"type":"VEC2"
		},
		{
			"bufferView":27,
			"componentType":5123,
			"count":2499,
			"type":"SCALAR"
		},
		{
			"bufferView":28,
			"componentType":5126,
			"count":700,
			"max":[
				0.08297835290431976,
				0.09989527612924576,
				0.09494605660438538
			],
			"min":[
				-0.08297835290431976,
				0,
				-0.09494605660438538
			],
			"type":"VEC3"
		},
		{
			"bufferView":29,
			"componentType":5126,
			"count":700,
			"type":"VEC3"
		},
		{
			"bufferView":30,
			"componentType":5126,
			"count":700,
			"type":"VEC2"
		},
		{
			"bufferView":31,
			"componentType":5123,
			"count":1959,
			"type":"SCALAR"
		},
		{
			"bufferView":32,
			"componentType":5126,
			"count":330,
			"max":[
				0.08047819137573242,
				0.3225463926792145,
				0.07926574349403381
			],
			"min":[
				-0.08047819137573242,
				0,
				-0.07926574349403381
			],
			"type":"VEC3"
		},
		{
			"bufferView":33,
			"componentType":5126,
			"count":330,
			"type":"VEC3"
		},
		{
			"bufferView":34,
			"componentType":5126,
			"count":330,
			"type":"VEC2"
		},
		{
			"bufferView":35,
			"componentType":5123,
			"count":870,
			"type":"SCALAR"
		},
		{
			"bufferView":36,
			"componentType":5126,
			"count":354,
			"max":[
				0.07497423887252808,
				0.28566300868988037,
				0.06739483773708344
			],
			"min":[
				-0.07497423887252808,
				0,
				-0.06739483773708344
			],
			"type":"VEC3"
		},
		{
			"bufferView":37,
			"componentType":5126,
			"count":354,
			"type":"VEC3"
		},
		{
			"bufferView":38,
			"componentType":5126,
			"count":354,
			"type":"VEC2"
		},
		{
			"bufferView":39,
			"componentType":5123,
			"count":930,
			"type":"SCALAR"
		},
		{
			"bufferView":40,
			"componentType":5126,
			"count":394,
			"max":[
				0.07651543617248535,
				0.2362561821937561,
				0.0640784502029419
			],
			"min":[
				-0.07651543617248535,
				0,
				-0.0640784502029419
			],
			"type":"VEC3"
		},
		{
			"bufferView":41,
			"componentType":5126,
			"count":394,
			"type":"VEC3"
		},
		{
			"bufferView":42,
			"componentType":5126,
			"count":394,
			"type":"VEC2"
		},
		{
			"bufferView":43,
			"componentType":5123,
			"count":1020,
			"type":"SCALAR"
		},
		{
			"bufferView":44,
			"componentType":5126,
			"count":87,
			"max":[
				0.033673882484436035,
				0.11245334148406982,
				0.036884378641843796
			],
			"min":[
				-0.033673882484436035,
				0,
				-0.036884378641843796
			],
			"type":"VEC3"
		},
		{
			"bufferView":45,
			"componentType":5126,
			"count":87,
			"type":"VEC3"
		},
		{
			"bufferView":46,
			"componentType":5126,
			"count":87,
			"type":"VEC2"
		},
		{
			"bufferView":47,
			"componentType":5123,
			"count":237,
			"type":"SCALAR"
		},
		{
			"bufferView":48,
			"componentType":5126,
			"count":30,
			"max":[
				0.011784911155700684,
				0.060208480805158615,
				0.01719936728477478
			],
			"min":[
				-0.011784911155700684,
				0,
				-0.01719936728477478
			],
			"type":"VEC3"
		},
		{
			"bufferView":49,
			"componentType":5126,
			"count":30,
			"type":"VEC3"
		},
		{
			"bufferView":50,
			"componentType":5126,
			"count":30,
			"type":"VEC2"
		},
		{
			"bufferView":51,
			"componentType":5123,
			"count":84,
			"type":"SCALAR"
		},
		{
			"bufferView":52,
			"componentType":5126,
			"count":44,
			"max":[
				0.008015751838684082,
				0.08238869905471802,
				0.014501886442303658
			],
			"min":[
				-0.008015751838684082,
				0,
				-0.014501886442303658
			],
			"type":"VEC3"
		},
		{
			"bufferView":53,
			"componentType":5126,
			"count":44,
			"type":"VEC3"
		},
		{
			"bufferView":54,
			"componentType":5126,
			"count":44,
			"type":"VEC2"
		},
		{
			"bufferView":55,
			"componentType":5123,
			"count":120,
			"type":"SCALAR"
		},
		{
			"bufferView":56,
			"componentType":5126,
			"count":36,
			"max":[
				0.021519899368286133,
				0.04782668501138687,
				0.044291239231824875
			],
			"min":[
				-0.021519899368286133,
				0,
				-0.044291239231824875
			],
			"type":"VEC3"
		},
		{
			"bufferView":57,
			"componentType":5126,
			"count":36,
			"type":"VEC3"
		},
		{
			"bufferView":58,
			"componentType":5126,
			"count":36,
			"type":"VEC2"
		},
		{
			"bufferView":59,
			"componentType":5123,
			"count":96,
			"type":"SCALAR"
		},
		{
			"bufferView":60,
			"componentType":5126,
			"count":66,
			"max":[
				0.0426328182220459,
				0.04945078864693642,
				0.037075966596603394
			],
			"min":[
				-0.0426328182220459,
				0,
				-0.037075966596603394
			],
			"type":"VEC3"
		},
		{
			"bufferView":61,
			"componentType":5126,
			"count":66,
			"type":"VEC3"
		},
		{
			"bufferView":62,
			"componentType":5126,
			"count":66,
			"type":"VEC2"
		},
		{
			"bufferView":63,
			"componentType":5123,
			"count":186,
			"type":"SCALAR"
		},
		{
			"bufferView":64,
			"componentType":5126,
			"count":68,
			"max":[
				0.027597904205322266,
				0.047074805945158005,
				0.03444506973028183
			],
			"min":[
				-0.027597904205322266,
				0,
				-0.03444506973028183
			],
			"type":"VEC3"
		},
		{
			"bufferView":65,
			"componentType":5126,
			"count":68,
			"type":"VEC3"
		},
		{
			"bufferView":66,
			"componentType":5126,
			"count":68,
			"type":"VEC2"
		},
		{
			"bufferView":67,
			"componentType":5123,
			"count":180,
			"type":"SCALAR"
		},
		{
			"bufferView":68,
			"componentType":5126,
			"count":653,
			"max":[
				0.05956093221902847,
				0.1569303721189499,
				0.05988120660185814
			],
			"min":[
				-0.05956093221902847,
				0,
				-0.05988120660185814
			],
			"type":"VEC3"
		},
		{
			"bufferView":69,
			"componentType":5126,
			"count":653,
			"type":"VEC3"
		},
		{
			"bufferView":70,
			"componentType":5126,
			"count":653,
			"type":"VEC2"
		},
		{
			"bufferView":71,
			"componentType":5123,
			"count":2142,
			"type":"SCALAR"
		},
		{
			"bufferView":72,
			"componentType":5126,
			"count":1575,
			"max":[
				0.0895635113120079,
				0.17956401407718658,
				0.09963418543338776
			],
			"min":[
				-0.0895635113120079,
				0,
				-0.09963418543338776
			],
			"type":"VEC3"
		},
		{
			"bufferView":73,
			"componentType":5126,
			"count":1575,
			"type":"VEC3"
		},
		{
			"bufferView":74,
			"componentType":5126,
			"count":1575,
			"type":"VEC2"
		},
		{
			"bufferView":75,
			"componentType":5123,
			"count":5280,
			"type":"SCALAR"
		},
		{
			"bufferView":76,
			"componentType":5126,
			"count":1072,
			"max":[
				0.1308385729789734,
				0.23166149854660034,
				0.12475517392158508
			],
			"min":[
				-0.1308385729789734,
				0,
				-0.12475517392158508
			],
			"type":"VEC3"
		},
		{
			"bufferView":77,
			"componentType":5126,
			"count":1072,
			"type":"VEC3"
		},
		{
			"bufferView":78,
			"componentType":5126,
			"count":1072,
			"type":"VEC2"
		},
		{
			"bufferView":79,
			"componentType":5123,
			"count":3645,
			"type":"SCALAR"
		},
		{
			"bufferView":80,
			"componentType":5126,
			"count":1769,
			"max":[
				0.1586880385875702,
				0.260376513004303,
				0.18096286058425903
			],
			"min":[
				-0.1586880385875702,
				0,
				-0.18096286058425903
			],
			"type":"VEC3"
		},
		{
			"bufferView":81,
			"componentType":5126,
			"count":1769,
			"type":"VEC3"
		},
		{
			"bufferView":82,
			"componentType":5126,
			"count":1769,
			"type":"VEC2"
		},
		{
			"bufferView":83,
			"componentType":5123,
			"count":5400,
			"type":"SCALAR"
		},
		{
			"bufferView":84,
			"componentType":5126,
			"count":1542,
			"max":[
				0.17778465151786804,
				0.40323612093925476,
				0.21662327647209167
			],
			"min":[
				-0.17778465151786804,
				0,
				-0.21662327647209167
			],
			"type":"VEC3"
		},
		{
			"bufferView":85,
			"componentType":5126,
			"count":1542,
			"type":"VEC3"
		},
		{
			"bufferView":86,
			"componentType":5126,
			"count":1542,
			"type":"VEC2"
		},
		{
			"bufferView":87,
			"componentType":5123,
			"count":4992,
			"type":"SCALAR"
		}
	],
	"bufferViews":[
		{
			"buffer":0,
			"byteLength":30816,
			"byteOffset":0,
			"target":34962
		},
		{
			"buffer":0,
			"byteLength":30816,
			"byteOffset":30816,
			"target":34962
		},
		{
			"buffer":0,
			"byteLength":20544,
			"byteOffset":61632,
			"target":34962
		},
		{
			"buffer":0,
			"byteLength":10800,
			"byteOffset":82176,
			"target":34963
		},
		{
			"buffer":0,
			"byteLength":25200,
			"byteOffset":92976,
			"target":34962
		},
		{
			"buffer":0,
			"byteLength":25200,
			"byteOffset":118176,
			"target":34962
		},
		{
			"buffer":0,
			"byteLength":16800,
			"byteOffset":143376,
			"target":34962
		},
		{
			"buffer":0,
			"byteLength":10800,
			"byteOffset":160176,
			"target":34963
		},
		{
			"buffer":0,
			"byteLength":29160,
			"byteOffset":170976,
			"target":34962
		},
		{
			"buffer":0,
			"byteLength":29160,
			"byteOffset":200136,
			"target":34962
		},
		{
			"buffer":0,
			"byteLength":19440,
			"byteOffset":229296,
			"target":34962
		},
		{
			"buffer":0,
			"byteLength":10800,
			"byteOffset":248736,
			"target":34963
		},
		{
			"buffer":0,
			"byteLength":25296,
			"byteOffset":259536,
			"target":34962
		},
		{
			"buffer":0,
			"byteLength":25296,
			"byteOffset":284832,
			"target":34962
		},
		{
			"buffer":0,
			"byteLength":16864,
			"byteOffset":310128,
			"target":34962
		},
		{
			"buffer":0,
			"byteLength":10800,
			"byteOffset":326992,
			"target":34963
		},
		{
			"buffer":0,
			"byteLength":16656,
			"byteOffset":337792,
			"target":34962
		},
		{
			"buffer":0,
			"byteLength":16656,
			"byteOffset":354448,
			"target":34962
		},
		{
			"buffer":0,
			"byteLength":11104,
			"byteOffset":371104,
			"target":34962
		},
		{
			"buffer":0,
			"byteLength":7542,
			"byteOffset":382208,
			"target":34963
		},
		{
			"buffer":0,
			"byteLength":19104,
			"byteOffset":389752,
			"target":34962
		},
		{
			"buffer":0,
			"byteLength":19104,
			"byteOffset":408856,
			"target":34962
		},
		{
			"buffer":0,
			"byteLength":12736,
			"byteOffset":427960,
			"target":34962
		},
		{
			"buffer":0,
			"byteLength":8796,
			"byteOffset":440696,
			"target":34963
		},
		{
			"buffer":0,
			"byteLength":10716,
			"byteOffset":449492,
			"target":34962
		},
		{
			"buffer":0,
			"byteLength":10716,
			"byteOffset":460208,
			"target":34962
		},
		{
			"buffer":0,
			"byteLength":7144,
			"byteOffset":470924,
			"target":34962
		},
		{
			"buffer":0,
			"byteLength":4998,
			"byteOffset":478068,
			"target":34963
		},
		{
			"buffer":0,
			"byteLength":8400,
			"byteOffset":483068,
			"target":34962
		},
		{
			"buffer":0,
			"byteLength":8400,
			"byteOffset":491468,
			"target":34962
		},
		{
			"buffer":0,
			"byteLength":5600,
			"byteOffset":499868,
			"target":34962
		},
		{
			"buffer":0,
			"byteLength":3918,
			"byteOffset":505468,
			"target":34963
		},
		{
			"buffer":0,
			"byteLength":3960,
			"byteOffset":509388,
			"target":34962
		},
		{
			"buffer":0,
			"byteLength":3960,
			"byteOffset":513348,
			"target":34962
		},
		{
			"buffer":0,
			"byteLength":2640,
			"byteOffset":517308,
			"target":34962
		},
		{
			"buffer":0,
			"byteLength":1740,
			"byteOffset":519948,
			"target":34963
		},
		{
			"buffer":0,
			"byteLength":4248,
			"byteOffset":521688,
			"target":34962
		},
		{
			"buffer":0,
			"byteLength":4248,
			"byteOffset":525936,
			"target":34962
		},
		{
			"buffer":0,
			"byteLength":2832,
			"byteOffset":530184,
			"target":34962
		},
		{
			"buffer":0,
			"byteLength":1860,
			"byteOffset":533016,
			"target":34963
		},
		{
			"buffer":0,
			"byteLength":4728,
			"byteOffset":534876,
			"target":34962
		},
		{
			"buffer":0,
			"byteLength":4728,
			"byteOffset":539604,
			"target":34962
		},
		{
			"buffer":0,
			"byteLength":3152,
			"byteOffset":544332,
			"target":34962
		},
		{
			"buffer":0,
			"byteLength":2040,
			"byteOffset":547484,
			"target":34963
		},
		{
			"buffer":0,
			"byteLength":1044,
			"byteOffset":549524,
			"target":34962
		},
		{
			"buffer":0,
			"byteLength":1044,
			"byteOffset":550568,
			"target":34962
		},
		{
			"buffer":0,
			"byteLength":696,
			"byteOffset":551612,
			"target":34962
		},
		{
			"buffer":0,
			"byteLength":474,
			"byteOffset":552308,
			"target":34963
		},
		{
			"buffer":0,
			"byteLength":360,
			"byteOffset":552784,
			"target":34962
		},
		{
			"buffer":0,
			"byteLength":360,
			"byteOffset":553144,
			"target":34962
		},
		{
			"buffer":0,
			"byteLength":240,
			"byteOffset":553504,
			"target":34962
		},
		{
			"buffer":0,
			"byteLength":168,
			"byteOffset":553744,
			"target":34963
		},
		{
			"buffer":0,
			"byteLength":528,
			"byteOffset":553912,
			"target":34962
		},
		{
			"buffer":0,
			"byteLength":528,
			"byteOffset":554440,
			"target":34962
		},
		{
			"buffer":0,
			"byteLength":352,
			"byteOffset":554968,
			"target":34962
		},
		{
			"buffer":0,
			"byteLength":240,
			"byteOffset":555320,
			"target":34963
		},
		{
			"buffer":0,
			"byteLength":432,
			"byteOffset":555560,
			"target":34962
		},
		{
			"buffer":0,
			"byteLength":432,
			"byteOffset":555992,
			"target":34962
		},
		{
			"buffer":0,
			"byteLength":288,
			"byteOffset":556424,
			"target":34962
		},
		{
			"buffer":0,
			"byteLength":192,
			"byteOffset":556712,
			"target":34963
		},
		{
			"buffer":0,
			"byteLength":792,
			"byteOffset":556904,
			"target":34962
		},
		{
			"buffer":0,
			"byteLength":792,
			"byteOffset":557696,
			"target":34962
		},
		{
			"buffer":0,
			"byteLength":528,
			"byteOffset":558488,
			"target":34962
		},
		{
			"buffer":0,
			"byteLength":372,
			"byteOffset":559016,
			"target":34963
		},
		{
			"buffer":0,
			"byteLength":816,
			"byteOffset":559388,
			"target":34962
		},
		{
			"buffer":0,
			"byteLength":816,
			"byteOffset":560204,
			"target":34962
		},
		{
			"buffer":0,
			"byteLength":544,
			"byteOffset":561020,
			"target":34962
		},
		{
			"buffer":0,
			"byteLength":360,
			"byteOffset":561564,
			"target":34963
		},
		{
			"buffer":0,
			"byteLength":7836,
			"byteOffset":561924,
			"target":34962
		},
		{
			"buffer":0,
			"byteLength":7836,
			"byteOffset":569760,
			"target":34962
		},
		{
			"buffer":0,
			"byteLength":5224,
			"byteOffset":577596,
			"target":34962
		},
		{
			"buffer":0,
			"byteLength":4284,
			"byteOffset":582820,
			"target":34963
		},
		{
			"buffer":0,
			"byteLength":18900,
			"byteOffset":587104,
			"target":34962
		},
		{
			"buffer":0,
			"byteLength":18900,
			"byteOffset":606004,
			"target":34962
		},
		{
			"buffer":0,
			"byteLength":12600,
			"byteOffset":624904,
			"target":34962
		},
		{
			"buffer":0,
			"byteLength":10560,
			"byteOffset":637504,
			"target":34963
		},
		{
			"buffer":0,
			"byteLength":12864,
			"byteOffset":648064,
			"target":34962
		},
		{
			"buffer":0,
			"byteLength":12864,
			"byteOffset":660928,
			"target":34962
		},
		{
			"buffer":0,
			"byteLength":8576,
			"byteOffset":673792,
			"target":34962
		},
		{
			"buffer":0,
			"byteLength":7290,
			"byteOffset":682368,
			"target":34963
		},
		{
			"buffer":0,
			"byteLength":21228,
			"byteOffset":689660,
			"target":34962
		},
		{
			"buffer":0,
			"byteLength":21228,
			"byteOffset":710888,
			"target":34962
		},
		{
			"buffer":0,
			"byteLength":14152,
			"byteOffset":732116,
			"target":34962
		},
		{
			"buffer":0,
			"byteLength":10800,
			"byteOffset":746268,
			"target":34963
		},
		{
			"buffer":0,
			"byteLength":18504,
			"byteOffset":757068,
			"target":34962
		},
		{
			"buffer":0,
			"byteLength":18504,
			"byteOffset":775572,
			"target":34962
		},
		{
			"buffer":0,
			"byteLength":12336,
			"byteOffset":794076,
			"target":34962
		},
		{
			"buffer":0,
			"byteLength":9984,
			"byteOffset":806412,
			"target":34963
		}
	],
	"samplers":[
		{
			"magFilter":9729,
			"minFilter":9987
		}
	],
	"buffers":[
		{
			"byteLength":816396,
			"uri":"scatter_grass.bin"
		}
	]
}
