{
	"asset":{
		"generator":"Khronos glTF Blender I/O v5.2.40",
		"version":"2.0"
	},
	"scene":0,
	"scenes":[
		{
			"name":"Scene",
			"nodes":[
				0,
				1,
				2,
				3,
				4,
				5,
				6
			]
		}
	],
	"nodes":[
		{
			"mesh":0,
			"name":"rock_0"
		},
		{
			"mesh":1,
			"name":"rock_1"
		},
		{
			"mesh":2,
			"name":"rock_2"
		},
		{
			"mesh":3,
			"name":"rock_3"
		},
		{
			"mesh":4,
			"name":"rock_4"
		},
		{
			"mesh":5,
			"name":"rock_5"
		},
		{
			"mesh":6,
			"name":"rock_6"
		}
	],
	"materials":[
		{
			"doubleSided":true,
			"name":"scatter_rocks",
			"normalTexture":{
				"index":0
			},
			"pbrMetallicRoughness":{
				"baseColorTexture":{
					"index":1
				},
				"metallicFactor":0,
				"metallicRoughnessTexture":{
					"index":2
				}
			}
		}
	],
	"meshes":[
		{
			"name":"low.002",
			"primitives":[
				{
					"attributes":{
						"POSITION":0,
						"NORMAL":1,
						"TEXCOORD_0":2
					},
					"indices":3,
					"material":0
				}
			]
		},
		{
			"name":"low.003",
			"primitives":[
				{
					"attributes":{
						"POSITION":4,
						"NORMAL":5,
						"TEXCOORD_0":6
					},
					"indices":7,
					"material":0
				}
			]
		},
		{
			"name":"moss rock 10.002",
			"primitives":[
				{
					"attributes":{
						"POSITION":8,
						"NORMAL":9,
						"TEXCOORD_0":10
					},
					"indices":11,
					"material":0
				}
			]
		},
		{
			"name":"moss rock 11.002",
			"primitives":[
				{
					"attributes":{
						"POSITION":12,
						"NORMAL":13,
						"TEXCOORD_0":14
					},
					"indices":15,
					"material":0
				}
			]
		},
		{
			"name":"moss rock 12.001",
			"primitives":[
				{
					"attributes":{
						"POSITION":16,
						"NORMAL":17,
						"TEXCOORD_0":18
					},
					"indices":19,
					"material":0
				}
			]
		},
		{
			"name":"moss rock 13.001",
			"primitives":[
				{
					"attributes":{
						"POSITION":20,
						"NORMAL":21,
						"TEXCOORD_0":22
					},
					"indices":23,
					"material":0
				}
			]
		},
		{
			"name":"moss rock 14.002",
			"primitives":[
				{
					"attributes":{
						"POSITION":24,
						"NORMAL":25,
						"TEXCOORD_0":26
					},
					"indices":27,
					"material":0
				}
			]
		}
	],
	"textures":[
		{
			"sampler":0,
			"source":0
		},
		{
			"sampler":0,
			"source":1
		},
		{
			"sampler":0,
			"source":2
		}
	],
	"images":[
		{
			"mimeType":"image/jpeg",
			"name":"scatter_rocks_nor",
			"uri":"scatter_rocks_nor.jpg"
		},
		{
			"mimeType":"image/jpeg",
			"name":"rock_moss_set_02_diff_2k",
			"uri":"rock_moss_set_02_diff_2k.jpg"
		},
		{
			"mimeType":"image/jpeg",
			"name":"rock_moss_set_02_rough_2k",
			"uri":"rock_moss_set_02_rough_2k.jpg"
		}
	],
	"accessors":[
		{
			"bufferView":0,
			"componentType":5126,
			"count":915,
			"max":[
				0.8460022211074829,
				0.7437060475349426,
				0.608274519443512
			],
			"min":[
				-0.8465042114257812,
				-0.0014205861371010542,
				-0.6091357469558716
			],
			"type":"VEC3"
		},
		{
			"bufferView":1,
			"componentType":5126,
			"count":915,
			"type":"VEC3"
		},
		{
			"bufferView":2,
			"componentType":5126,
			"count":915,
			"type":"VEC2"
		},
		{
			"bufferView":3,
			"componentType":5123,
			"count":4200,
			"type":"SCALAR"
		},
		{
			"bufferView":4,
			"componentType":5126,
			"count":816,
			"max":[
				0.6056908369064331,
				0.5208137631416321,
				0.4897086024284363
			],
			"min":[
				-0.6016135215759277,
				5.1290166993567254e-06,
				-0.4897695779800415
			],
			"type":"VEC3"
		},
		{
			"bufferView":5,
			"componentType":5126,
			"count":816,
			"type":"VEC3"
		},
		{
			"bufferView":6,
			"componentType":5126,
			"count":816,
			"type":"VEC2"
		},
		{
			"bufferView":7,
			"componentType":5123,
			"count":4197,
			"type":"SCALAR"
		},
		{
			"bufferView":8,
			"componentType":5126,
			"count":817,
			"max":[
				0.8104671835899353,
				0.60926353931427,
				0.5070424675941467
			],
			"min":[
				-0.8174831867218018,
				0.0014023069525137544,
				-0.5091555118560791
			],
			"type":"VEC3"
		},
		{
			"bufferView":9,
			"componentType":5126,
			"count":817,
			"type":"VEC3"
		},
		{
			"bufferView":10,
			"componentType":5126,
			"count":817,
			"type":"VEC2"
		},
		{
			"bufferView":11,
			"componentType":5123,
			"count":4200,
			"type":"SCALAR"
		},
		{
			"bufferView":12,
			"componentType":5126,
			"count":824,
			"max":[
				1.1007963418960571,
				0.7677329778671265,
				0.7758179903030396
			],
			"min":[
				-1.1001111268997192,
				-0.002477639587596059,
				-0.7738760709762573
			],
			"type":"VEC3"
		},
		{
			"bufferView":13,
			"componentType":5126,
			"count":824,
			"type":"VEC3"
		},
		{
			"bufferView":14,
			"componentType":5126,
			"count":824,
			"type":"VEC2"
		},
		{
			"bufferView":15,
			"componentType":5123,
			"count":4197,
			"type":"SCALAR"
		},
		{
			"bufferView":16,
			"componentType":5126,
			"count":882,
			"max":[
				0.9804161787033081,
				1.3052115440368652,
				0.764995813369751
			],
			"min":[
				-0.9745216965675354,
				0.001595590845681727,
				-0.7650722861289978
			],
			"type":"VEC3"
		},
		{
			"bufferView":17,
			"componentType":5126,
			"count":882,
			"type":"VEC3"
		},
		{
			"bufferView":18,
			"componentType":5126,
			"count":882,
			"type":"VEC2"
		},
		{
			"bufferView":19,
			"componentType":5123,
			"count":4200,
			"type":"SCALAR"
		},
		{
			"bufferView":20,
			"componentType":5126,
			"count":937,
			"max":[
				0.7925793528556824,
				0.7377617359161377,
				0.7208546996116638
			],
			"min":[
				-0.7777618765830994,
				0.0024718574713915586,
				-0.7235992550849915
			],
			"type":"VEC3"
		},
		{
			"bufferView":21,
			"componentType":5126,
			"count":937,
			"type":"VEC3"
		},
		{
			"bufferView":22,
			"componentType":5126,
			"count":937,
			"type":"VEC2"
		},
		{
			"bufferView":23,
			"componentType":5123,
			"count":4197,
			"type":"SCALAR"
		},
		{
			"bufferView":24,
			"componentType":5126,
			"count":881,
			"max":[
				1.0432320833206177,
				1.2587556838989258,
				0.5693089365959167
			],
			"min":[
				-1.0543876886367798,
				0.0028148710262030363,
				-0.5702646970748901
			],
			"type":"VEC3"
		},
		{
			"bufferView":25,
			"componentType":5126,
			"count":881,
			"type":"VEC3"
		},
		{
			"bufferView":26,
			"componentType":5126,
			"count":881,
			"type":"VEC2"
		},
		{
			"bufferView":27,
			"componentType":5123,
			"count":4200,
			"type":"SCALAR"
		}
	],
	"bufferViews":[
		{
			"buffer":0,
			"byteLength":10980,
			"byteOffset":0,
			"target":34962
		},
		{
			"buffer":0,
			"byteLength":10980,
			"byteOffset":10980,
			"target":34962
		},
		{
			"buffer":0,
			"byteLength":7320,
			"byteOffset":21960,
			"target":34962
		},
		{
			"buffer":0,
			"byteLength":8400,
			"byteOffset":29280,
			"target":34963
		},
		{
			"buffer":0,
			"byteLength":9792,
			"byteOffset":37680,
			"target":34962
		},
		{
			"buffer":0,
			"byteLength":9792,
			"byteOffset":47472,
			"target":34962
		},
		{
			"buffer":0,
			"byteLength":6528,
			"byteOffset":57264,
			"target":34962
		},
		{
			"buffer":0,
			"byteLength":8394,
			"byteOffset":63792,
			"target":34963
		},
		{
			"buffer":0,
			"byteLength":9804,
			"byteOffset":72188,
			"target":34962
		},
		{
			"buffer":0,
			"byteLength":9804,
			"byteOffset":81992,
			"target":34962
		},
		{
			"buffer":0,
			"byteLength":6536,
			"byteOffset":91796,
			"target":34962
		},
		{
			"buffer":0,
			"byteLength":8400,
			"byteOffset":98332,
			"target":34963
		},
		{
			"buffer":0,
			"byteLength":9888,
			"byteOffset":106732,
			"target":34962
		},
		{
			"buffer":0,
			"byteLength":9888,
			"byteOffset":116620,
			"target":34962
		},
		{
			"buffer":0,
			"byteLength":6592,
			"byteOffset":126508,
			"target":34962
		},
		{
			"buffer":0,
			"byteLength":8394,
			"byteOffset":133100,
			"target":34963
		},
		{
			"buffer":0,
			"byteLength":10584,
			"byteOffset":141496,
			"target":34962
		},
		{
			"buffer":0,
			"byteLength":10584,
			"byteOffset":152080,
			"target":34962
		},
		{
			"buffer":0,
			"byteLength":7056,
			"byteOffset":162664,
			"target":34962
		},
		{
			"buffer":0,
			"byteLength":8400,
			"byteOffset":169720,
			"target":34963
		},
		{
			"buffer":0,
			"byteLength":11244,
			"byteOffset":178120,
			"target":34962
		},
		{
			"buffer":0,
			"byteLength":11244,
			"byteOffset":189364,
			"target":34962
		},
		{
			"buffer":0,
			"byteLength":7496,
			"byteOffset":200608,
			"target":34962
		},
		{
			"buffer":0,
			"byteLength":8394,
			"byteOffset":208104,
			"target":34963
		},
		{
			"buffer":0,
			"byteLength":10572,
			"byteOffset":216500,
			"target":34962
		},
		{
			"buffer":0,
			"byteLength":10572,
			"byteOffset":227072,
			"target":34962
		},
		{
			"buffer":0,
			"byteLength":7048,
			"byteOffset":237644,
			"target":34962
		},
		{
			"buffer":0,
			"byteLength":8400,
			"byteOffset":244692,
			"target":34963
		}
	],
	"samplers":[
		{
			"magFilter":9729,
			"minFilter":9987
		}
	],
	"buffers":[
		{
			"byteLength":253092,
			"uri":"scatter_rocks.bin"
		}
	]
}
