{
	"asset":{
		"generator":"Khronos glTF Blender I/O v5.2.40",
		"version":"2.0"
	},
	"scene":0,
	"scenes":[
		{
			"name":"Scene",
			"nodes":[
				0
			]
		}
	],
	"nodes":[
		{
			"mesh":0,
			"name":"fan_standing"
		}
	],
	"materials":[
		{
			"doubleSided":true,
			"name":"trousers",
			"pbrMetallicRoughness":{
				"baseColorFactor":[
					0.800000011920929,
					0.800000011920929,
					0.800000011920929,
					1
				],
				"metallicFactor":0,
				"roughnessFactor":0.5
			}
		},
		{
			"doubleSided":true,
			"name":"hair",
			"pbrMetallicRoughness":{
				"baseColorFactor":[
					0.800000011920929,
					0.800000011920929,
					0.800000011920929,
					1
				],
				"metallicFactor":0,
				"roughnessFactor":0.5
			}
		},
		{
			"doubleSided":true,
			"name":"shirt",
			"pbrMetallicRoughness":{
				"baseColorFactor":[
					0.800000011920929,
					0.800000011920929,
					0.800000011920929,
					1
				],
				"metallicFactor":0,
				"roughnessFactor":0.5
			}
		},
		{
			"doubleSided":true,
			"name":"skin",
			"pbrMetallicRoughness":{
				"baseColorFactor":[
					0.800000011920929,
					0.800000011920929,
					0.800000011920929,
					1
				],
				"metallicFactor":0,
				"roughnessFactor":0.5
			}
		}
	],
	"meshes":[
		{
			"name":"Cylinder",
			"primitives":[
				{
					"attributes":{
						"POSITION":0,
						"NORMAL":1,
						"TEXCOORD_0":2,
						"COLOR_0":3
					},
					"indices":4,
					"material":0
				},
				{
					"attributes":{
						"POSITION":5,
						"NORMAL":6,
						"TEXCOORD_0":7,
						"COLOR_0":8
					},
					"indices":9,
					"material":1
				},
				{
					"attributes":{
						"POSITION":10,
						"NORMAL":11,
						"TEXCOORD_0":12,
						"COLOR_0":13
					},
					"indices":14,
					"material":2
				},
				{
					"attributes":{
						"POSITION":15,
						"NORMAL":16,
						"TEXCOORD_0":17,
						"COLOR_0":18
					},
					"indices":19,
					"material":3
				}
			]
		}
	],
	"accessors":[
		{
			"bufferView":0,
			"componentType":5126,
			"count":126,
			"max":[
				0.3591371774673462,
				1.0800000429153442,
				0.42257606983184814
			],
			"min":[
				-0.3591371774673462,
				0.40884581208229065,
				-0.4014858305454254
			],
			"type":"VEC3"
		},
		{
			"bufferView":1,
			"componentType":5126,
			"count":126,
			"type":"VEC3"
		},
		{
			"bufferView":2,
			"componentType":5126,
			"count":126,
			"type":"VEC2"
		},
		{
			"bufferView":3,
			"componentType":5123,
			"count":126,
			"normalized":true,
			"type":"VEC4"
		},
		{
			"bufferView":4,
			"componentType":5123,
			"count":204,
			"type":"SCALAR"
		},
		{
			"bufferView":5,
			"componentType":5126,
			"count":174,
			"max":[
				0.15763139724731445,
				1.8700000047683716,
				0.20999999344348907
			],
			"min":[
				-0.15763139724731445,
				0,
				-0.12000000476837158
			],
			"type":"VEC3"
		},
		{
			"bufferView":6,
			"componentType":5126,
			"count":174,
			"type":"VEC3"
		},
		{
			"bufferView":7,
			"componentType":5126,
			"count":174,
			"type":"VEC2"
		},
		{
			"bufferView":8,
			"componentType":5123,
			"count":174,
			"normalized":true,
			"type":"VEC4"
		},
		{
			"bufferView":9,
			"componentType":5123,
			"count":342,
			"type":"SCALAR"
		},
		{
			"bufferView":10,
			"componentType":5126,
			"count":124,
			"max":[
				0.3538782596588135,
				1.5099999904632568,
				0.1869570016860962
			],
			"min":[
				-0.3538782596588135,
				0.9900000095367432,
				-0.11999999731779099
			],
			"type":"VEC3"
		},
		{
			"bufferView":11,
			"componentType":5126,
			"count":124,
			"type":"VEC3"
		},
		{
			"bufferView":12,
			"componentType":5126,
			"count":124,
			"type":"VEC2"
		},
		{
			"bufferView":13,
			"componentType":5123,
			"count":124,
			"normalized":true,
			"type":"VEC4"
		},
		{
			"bufferView":14,
			"componentType":5123,
			"count":240,
			"type":"SCALAR"
		},
		{
			"bufferView":15,
			"componentType":5126,
			"count":162,
			"max":[
				0.3027975261211395,
				1.840000033378601,
				0.2388252317905426
			],
			"min":[
				-0.3027975261211395,
				0.9758739471435547,
				-0.0949999988079071
			],
			"type":"VEC3"
		},
		{
			"bufferView":16,
			"componentType":5126,
			"count":162,
			"type":"VEC3"
		},
		{
			"bufferView":17,
			"componentType":5126,
			"count":162,
			"type":"VEC2"
		},
		{
			"bufferView":18,
			"componentType":5123,
			"count":162,
			"normalized":true,
			"type":"VEC4"
		},
		{
			"bufferView":19,
			"componentType":5123,
			"count":270,
			"type":"SCALAR"
		}
	],
	"bufferViews":[
		{
			"buffer":0,
			"byteLength":1512,
			"byteOffset":0,
			"target":34962
		},
		{
			"buffer":0,
			"byteLength":1512,
			"byteOffset":1512,
			"target":34962
		},
		{
			"buffer":0,
			"byteLength":1008,
			"byteOffset":3024,
			"target":34962
		},
		{
			"buffer":0,
			"byteLength":1008,
			"byteOffset":4032,
			"target":34962
		},
		{
			"buffer":0,
			"byteLength":408,
			"byteOffset":5040,
			"target":34963
		},
		{
			"buffer":0,
			"byteLength":2088,
			"byteOffset":5448,
			"target":34962
		},
		{
			"buffer":0,
			"byteLength":2088,
			"byteOffset":7536,
			"target":34962
		},
		{
			"buffer":0,
			"byteLength":1392,
			"byteOffset":9624,
			"target":34962
		},
		{
			"buffer":0,
			"byteLength":1392,
			"byteOffset":11016,
			"target":34962
		},
		{
			"buffer":0,
			"byteLength":684,
			"byteOffset":12408,
			"target":34963
		},
		{
			"buffer":0,
			"byteLength":1488,
			"byteOffset":13092,
			"target":34962
		},
		{
			"buffer":0,
			"byteLength":1488,
			"byteOffset":14580,
			"target":34962
		},
		{
			"buffer":0,
			"byteLength":992,
			"byteOffset":16068,
			"target":34962
		},
		{
			"buffer":0,
			"byteLength":992,
			"byteOffset":17060,
			"target":34962
		},
		{
			"buffer":0,
			"byteLength":480,
			"byteOffset":18052,
			"target":34963
		},
		{
			"buffer":0,
			"byteLength":1944,
			"byteOffset":18532,
			"target":34962
		},
		{
			"buffer":0,
			"byteLength":1944,
			"byteOffset":20476,
			"target":34962
		},
		{
			"buffer":0,
			"byteLength":1296,
			"byteOffset":22420,
			"target":34962
		},
		{
			"buffer":0,
			"byteLength":1296,
			"byteOffset":23716,
			"target":34962
		},
		{
			"buffer":0,
			"byteLength":540,
			"byteOffset":25012,
			"target":34963
		}
	],
	"buffers":[
		{
			"byteLength":25552,
			"uri":"stadium_fan_standing.bin"
		}
	]
}
