{
	"asset":{
		"generator":"Khronos glTF Blender I/O v5.2.40",
		"version":"2.0"
	},
	"scene":0,
	"scenes":[
		{
			"name":"Scene",
			"nodes":[
				0
			]
		}
	],
	"nodes":[
		{
			"mesh":0,
			"name":"scoreboard"
		}
	],
	"materials":[
		{
			"doubleSided":true,
			"name":"timber",
			"pbrMetallicRoughness":{
				"baseColorFactor":[
					0.800000011920929,
					0.800000011920929,
					0.800000011920929,
					1
				],
				"metallicFactor":0,
				"roughnessFactor":0.5
			}
		},
		{
			"doubleSided":true,
			"name":"iron",
			"pbrMetallicRoughness":{
				"baseColorFactor":[
					0.800000011920929,
					0.800000011920929,
					0.800000011920929,
					1
				],
				"metallicFactor":0,
				"roughnessFactor":0.5
			}
		},
		{
			"doubleSided":true,
			"name":"lamp",
			"pbrMetallicRoughness":{
				"baseColorFactor":[
					0.800000011920929,
					0.800000011920929,
					0.800000011920929,
					1
				],
				"metallicFactor":0,
				"roughnessFactor":0.5
			}
		}
	],
	"meshes":[
		{
			"name":"t",
			"primitives":[
				{
					"attributes":{
						"POSITION":0,
						"NORMAL":1,
						"TEXCOORD_0":2,
						"COLOR_0":3
					},
					"indices":4,
					"material":0
				},
				{
					"attributes":{
						"POSITION":5,
						"NORMAL":6,
						"TEXCOORD_0":7,
						"COLOR_0":8
					},
					"indices":9,
					"material":1
				},
				{
					"attributes":{
						"POSITION":10,
						"NORMAL":11,
						"TEXCOORD_0":12,
						"COLOR_0":13
					},
					"indices":14,
					"material":2
				}
			]
		}
	],
	"accessors":[
		{
			"bufferView":0,
			"componentType":5126,
			"count":6336,
			"max":[
				26,
				56,
				2.6000020503997803
			],
			"min":[
				-26,
				0,
				-2.6000020503997803
			],
			"type":"VEC3"
		},
		{
			"bufferView":1,
			"componentType":5126,
			"count":6336,
			"type":"VEC3"
		},
		{
			"bufferView":2,
			"componentType":5126,
			"count":6336,
			"type":"VEC2"
		},
		{
			"bufferView":3,
			"componentType":5123,
			"count":6336,
			"normalized":true,
			"type":"VEC4"
		},
		{
			"bufferView":4,
			"componentType":5123,
			"count":21384,
			"type":"SCALAR"
		},
		{
			"bufferView":5,
			"componentType":5126,
			"count":7472,
			"max":[
				28,
				57.400001525878906,
				4
			],
			"min":[
				-28,
				3.491999864578247,
				-4
			],
			"type":"VEC3"
		},
		{
			"bufferView":6,
			"componentType":5126,
			"count":7472,
			"type":"VEC3"
		},
		{
			"bufferView":7,
			"componentType":5126,
			"count":7472,
			"type":"VEC2"
		},
		{
			"bufferView":8,
			"componentType":5123,
			"count":7472,
			"normalized":true,
			"type":"VEC4"
		},
		{
			"bufferView":9,
			"componentType":5123,
			"count":21408,
			"type":"SCALAR"
		},
		{
			"bufferView":10,
			"componentType":5126,
			"count":384,
			"max":[
				19,
				55.76000213623047,
				3.6000001430511475
			],
			"min":[
				-19,
				55.63999938964844,
				2.799999952316284
			],
			"type":"VEC3"
		},
		{
			"bufferView":11,
			"componentType":5126,
			"count":384,
			"type":"VEC3"
		},
		{
			"bufferView":12,
			"componentType":5126,
			"count":384,
			"type":"VEC2"
		},
		{
			"bufferView":13,
			"componentType":5123,
			"count":384,
			"normalized":true,
			"type":"VEC4"
		},
		{
			"bufferView":14,
			"componentType":5123,
			"count":1296,
			"type":"SCALAR"
		}
	],
	"bufferViews":[
		{
			"buffer":0,
			"byteLength":76032,
			"byteOffset":0,
			"target":34962
		},
		{
			"buffer":0,
			"byteLength":76032,
			"byteOffset":76032,
			"target":34962
		},
		{
			"buffer":0,
			"byteLength":50688,
			"byteOffset":152064,
			"target":34962
		},
		{
			"buffer":0,
			"byteLength":50688,
			"byteOffset":202752,
			"target":34962
		},
		{
			"buffer":0,
			"byteLength":42768,
			"byteOffset":253440,
			"target":34963
		},
		{
			"buffer":0,
			"byteLength":89664,
			"byteOffset":296208,
			"target":34962
		},
		{
			"buffer":0,
			"byteLength":89664,
			"byteOffset":385872,
			"target":34962
		},
		{
			"buffer":0,
			"byteLength":59776,
			"byteOffset":475536,
			"target":34962
		},
		{
			"buffer":0,
			"byteLength":59776,
			"byteOffset":535312,
			"target":34962
		},
		{
			"buffer":0,
			"byteLength":42816,
			"byteOffset":595088,
			"target":34963
		},
		{
			"buffer":0,
			"byteLength":4608,
			"byteOffset":637904,
			"target":34962
		},
		{
			"buffer":0,
			"byteLength":4608,
			"byteOffset":642512,
			"target":34962
		},
		{
			"buffer":0,
			"byteLength":3072,
			"byteOffset":647120,
			"target":34962
		},
		{
			"buffer":0,
			"byteLength":3072,
			"byteOffset":650192,
			"target":34962
		},
		{
			"buffer":0,
			"byteLength":2592,
			"byteOffset":653264,
			"target":34963
		}
	],
	"buffers":[
		{
			"byteLength":655856,
			"uri":"stadium_scoreboard.bin"
		}
	]
}
