{
	"asset":{
		"generator":"Khronos glTF Blender I/O v5.2.40",
		"version":"2.0"
	},
	"scene":0,
	"scenes":[
		{
			"name":"Scene",
			"nodes":[
				0
			]
		}
	],
	"nodes":[
		{
			"mesh":0,
			"name":"fan_seated"
		}
	],
	"materials":[
		{
			"doubleSided":true,
			"name":"trousers",
			"pbrMetallicRoughness":{
				"baseColorFactor":[
					0.800000011920929,
					0.800000011920929,
					0.800000011920929,
					1
				],
				"metallicFactor":0,
				"roughnessFactor":0.5
			}
		},
		{
			"doubleSided":true,
			"name":"hair",
			"pbrMetallicRoughness":{
				"baseColorFactor":[
					0.800000011920929,
					0.800000011920929,
					0.800000011920929,
					1
				],
				"metallicFactor":0,
				"roughnessFactor":0.5
			}
		},
		{
			"doubleSided":true,
			"name":"shirt",
			"pbrMetallicRoughness":{
				"baseColorFactor":[
					0.800000011920929,
					0.800000011920929,
					0.800000011920929,
					1
				],
				"metallicFactor":0,
				"roughnessFactor":0.5
			}
		},
		{
			"doubleSided":true,
			"name":"skin",
			"pbrMetallicRoughness":{
				"baseColorFactor":[
					0.800000011920929,
					0.800000011920929,
					0.800000011920929,
					1
				],
				"metallicFactor":0,
				"roughnessFactor":0.5
			}
		}
	],
	"meshes":[
		{
			"name":"Cylinder",
			"primitives":[
				{
					"attributes":{
						"POSITION":0,
						"NORMAL":1,
						"TEXCOORD_0":2,
						"COLOR_0":3
					},
					"indices":4,
					"material":0
				},
				{
					"attributes":{
						"POSITION":5,
						"NORMAL":6,
						"TEXCOORD_0":7,
						"COLOR_0":8
					},
					"indices":9,
					"material":1
				},
				{
					"attributes":{
						"POSITION":10,
						"NORMAL":11,
						"TEXCOORD_0":12,
						"COLOR_0":13
					},
					"indices":14,
					"material":2
				},
				{
					"attributes":{
						"POSITION":15,
						"NORMAL":16,
						"TEXCOORD_0":17,
						"COLOR_0":18
					},
					"indices":19,
					"material":3
				}
			]
		}
	],
	"accessors":[
		{
			"bufferView":0,
			"componentType":5126,
			"count":186,
			"max":[
				0.17132924497127533,
				0.6899999976158142,
				0.6545238494873047
			],
			"min":[
				-0.17132924497127533,
				0.18515759706497192,
				-0.11999999731779099
			],
			"type":"VEC3"
		},
		{
			"bufferView":1,
			"componentType":5126,
			"count":186,
			"type":"VEC3"
		},
		{
			"bufferView":2,
			"componentType":5126,
			"count":186,
			"type":"VEC2"
		},
		{
			"bufferView":3,
			"componentType":5123,
			"count":186,
			"normalized":true,
			"type":"VEC4"
		},
		{
			"bufferView":4,
			"componentType":5123,
			"count":300,
			"type":"SCALAR"
		},
		{
			"bufferView":5,
			"componentType":5126,
			"count":174,
			"max":[
				0.14763140678405762,
				1.4300000667572021,
				0.6499999761581421
			],
			"min":[
				-0.14763140678405762,
				0,
				-0.12000000476837158
			],
			"type":"VEC3"
		},
		{
			"bufferView":6,
			"componentType":5126,
			"count":174,
			"type":"VEC3"
		},
		{
			"bufferView":7,
			"componentType":5126,
			"count":174,
			"type":"VEC2"
		},
		{
			"bufferView":8,
			"componentType":5123,
			"count":174,
			"normalized":true,
			"type":"VEC4"
		},
		{
			"bufferView":9,
			"componentType":5123,
			"count":342,
			"type":"SCALAR"
		},
		{
			"bufferView":10,
			"componentType":5126,
			"count":124,
			"max":[
				0.3538782596588135,
				1.0699999332427979,
				0.1869570016860962
			],
			"min":[
				-0.3538782596588135,
				0.550000011920929,
				-0.11999999731779099
			],
			"type":"VEC3"
		},
		{
			"bufferView":11,
			"componentType":5126,
			"count":124,
			"type":"VEC3"
		},
		{
			"bufferView":12,
			"componentType":5126,
			"count":124,
			"type":"VEC2"
		},
		{
			"bufferView":13,
			"componentType":5123,
			"count":124,
			"normalized":true,
			"type":"VEC4"
		},
		{
			"bufferView":14,
			"componentType":5123,
			"count":240,
			"type":"SCALAR"
		},
		{
			"bufferView":15,
			"componentType":5126,
			"count":162,
			"max":[
				0.2923750579357147,
				1.399999976158142,
				0.2647066116333008
			],
			"min":[
				-0.2923750579357147,
				0.586174726486206,
				-0.0949999988079071
			],
			"type":"VEC3"
		},
		{
			"bufferView":16,
			"componentType":5126,
			"count":162,
			"type":"VEC3"
		},
		{
			"bufferView":17,
			"componentType":5126,
			"count":162,
			"type":"VEC2"
		},
		{
			"bufferView":18,
			"componentType":5123,
			"count":162,
			"normalized":true,
			"type":"VEC4"
		},
		{
			"bufferView":19,
			"componentType":5123,
			"count":270,
			"type":"SCALAR"
		}
	],
	"bufferViews":[
		{
			"buffer":0,
			"byteLength":2232,
			"byteOffset":0,
			"target":34962
		},
		{
			"buffer":0,
			"byteLength":2232,
			"byteOffset":2232,
			"target":34962
		},
		{
			"buffer":0,
			"byteLength":1488,
			"byteOffset":4464,
			"target":34962
		},
		{
			"buffer":0,
			"byteLength":1488,
			"byteOffset":5952,
			"target":34962
		},
		{
			"buffer":0,
			"byteLength":600,
			"byteOffset":7440,
			"target":34963
		},
		{
			"buffer":0,
			"byteLength":2088,
			"byteOffset":8040,
			"target":34962
		},
		{
			"buffer":0,
			"byteLength":2088,
			"byteOffset":10128,
			"target":34962
		},
		{
			"buffer":0,
			"byteLength":1392,
			"byteOffset":12216,
			"target":34962
		},
		{
			"buffer":0,
			"byteLength":1392,
			"byteOffset":13608,
			"target":34962
		},
		{
			"buffer":0,
			"byteLength":684,
			"byteOffset":15000,
			"target":34963
		},
		{
			"buffer":0,
			"byteLength":1488,
			"byteOffset":15684,
			"target":34962
		},
		{
			"buffer":0,
			"byteLength":1488,
			"byteOffset":17172,
			"target":34962
		},
		{
			"buffer":0,
			"byteLength":992,
			"byteOffset":18660,
			"target":34962
		},
		{
			"buffer":0,
			"byteLength":992,
			"byteOffset":19652,
			"target":34962
		},
		{
			"buffer":0,
			"byteLength":480,
			"byteOffset":20644,
			"target":34963
		},
		{
			"buffer":0,
			"byteLength":1944,
			"byteOffset":21124,
			"target":34962
		},
		{
			"buffer":0,
			"byteLength":1944,
			"byteOffset":23068,
			"target":34962
		},
		{
			"buffer":0,
			"byteLength":1296,
			"byteOffset":25012,
			"target":34962
		},
		{
			"buffer":0,
			"byteLength":1296,
			"byteOffset":26308,
			"target":34962
		},
		{
			"buffer":0,
			"byteLength":540,
			"byteOffset":27604,
			"target":34963
		}
	],
	"buffers":[
		{
			"byteLength":28144,
			"uri":"stadium_fan_seated.bin"
		}
	]
}
