{
	"asset":{
		"generator":"Khronos glTF Blender I/O v5.2.40",
		"version":"2.0"
	},
	"scene":0,
	"scenes":[
		{
			"name":"Scene",
			"nodes":[
				0
			]
		}
	],
	"nodes":[
		{
			"mesh":0,
			"name":"tower"
		}
	],
	"materials":[
		{
			"doubleSided":true,
			"name":"timber",
			"pbrMetallicRoughness":{
				"baseColorFactor":[
					0.800000011920929,
					0.800000011920929,
					0.800000011920929,
					1
				],
				"metallicFactor":0,
				"roughnessFactor":0.5
			}
		},
		{
			"doubleSided":true,
			"name":"iron",
			"pbrMetallicRoughness":{
				"baseColorFactor":[
					0.800000011920929,
					0.800000011920929,
					0.800000011920929,
					1
				],
				"metallicFactor":0,
				"roughnessFactor":0.5
			}
		},
		{
			"doubleSided":true,
			"name":"plank",
			"pbrMetallicRoughness":{
				"baseColorFactor":[
					0.800000011920929,
					0.800000011920929,
					0.800000011920929,
					1
				],
				"metallicFactor":0,
				"roughnessFactor":0.5
			}
		},
		{
			"doubleSided":true,
			"name":"lamp",
			"pbrMetallicRoughness":{
				"baseColorFactor":[
					0.800000011920929,
					0.800000011920929,
					0.800000011920929,
					1
				],
				"metallicFactor":0,
				"roughnessFactor":0.5
			}
		}
	],
	"meshes":[
		{
			"name":"t",
			"primitives":[
				{
					"attributes":{
						"POSITION":0,
						"NORMAL":1,
						"TEXCOORD_0":2,
						"COLOR_0":3
					},
					"indices":4,
					"material":0
				},
				{
					"attributes":{
						"POSITION":5,
						"NORMAL":6,
						"TEXCOORD_0":7,
						"COLOR_0":8
					},
					"indices":9,
					"material":1
				},
				{
					"attributes":{
						"POSITION":10,
						"NORMAL":11,
						"TEXCOORD_0":12,
						"COLOR_0":13
					},
					"indices":14,
					"material":2
				},
				{
					"attributes":{
						"POSITION":15,
						"NORMAL":16,
						"TEXCOORD_0":17,
						"COLOR_0":18
					},
					"indices":19,
					"material":3
				}
			]
		}
	],
	"accessors":[
		{
			"bufferView":0,
			"componentType":5126,
			"count":10848,
			"max":[
				3.4000000953674316,
				50.60000228881836,
				3.5
			],
			"min":[
				-3.4000000953674316,
				-2,
				-3.5
			],
			"type":"VEC3"
		},
		{
			"bufferView":1,
			"componentType":5126,
			"count":10848,
			"type":"VEC3"
		},
		{
			"bufferView":2,
			"componentType":5126,
			"count":10848,
			"type":"VEC2"
		},
		{
			"bufferView":3,
			"componentType":5123,
			"count":10848,
			"normalized":true,
			"type":"VEC4"
		},
		{
			"bufferView":4,
			"componentType":5123,
			"count":36612,
			"type":"SCALAR"
		},
		{
			"bufferView":5,
			"componentType":5126,
			"count":18824,
			"max":[
				4.384061813354492,
				52.400001525878906,
				5.1840620040893555
			],
			"min":[
				-4.384061813354492,
				-0.2500000298023224,
				-3.584061861038208
			],
			"type":"VEC3"
		},
		{
			"bufferView":6,
			"componentType":5126,
			"count":18824,
			"type":"VEC3"
		},
		{
			"bufferView":7,
			"componentType":5126,
			"count":18824,
			"type":"VEC2"
		},
		{
			"bufferView":8,
			"componentType":5123,
			"count":18824,
			"normalized":true,
			"type":"VEC4"
		},
		{
			"bufferView":9,
			"componentType":5123,
			"count":59790,
			"type":"SCALAR"
		},
		{
			"bufferView":10,
			"componentType":5126,
			"count":96,
			"max":[
				3.5,
				44.150001525878906,
				3.5
			],
			"min":[
				-3.5,
				43.849998474121094,
				-3.5
			],
			"type":"VEC3"
		},
		{
			"bufferView":11,
			"componentType":5126,
			"count":96,
			"type":"VEC3"
		},
		{
			"bufferView":12,
			"componentType":5126,
			"count":96,
			"type":"VEC2"
		},
		{
			"bufferView":13,
			"componentType":5123,
			"count":96,
			"normalized":true,
			"type":"VEC4"
		},
		{
			"bufferView":14,
			"componentType":5123,
			"count":324,
			"type":"SCALAR"
		},
		{
			"bufferView":15,
			"componentType":5126,
			"count":588,
			"max":[
				3.1500000953674316,
				48.697086334228516,
				4.13713264465332
			],
			"min":[
				-3.1500000953674316,
				45.06608581542969,
				2.6390795707702637
			],
			"type":"VEC3"
		},
		{
			"bufferView":16,
			"componentType":5126,
			"count":588,
			"type":"VEC3"
		},
		{
			"bufferView":17,
			"componentType":5126,
			"count":588,
			"type":"VEC2"
		},
		{
			"bufferView":18,
			"componentType":5123,
			"count":588,
			"normalized":true,
			"type":"VEC4"
		},
		{
			"bufferView":19,
			"componentType":5123,
			"count":1656,
			"type":"SCALAR"
		}
	],
	"bufferViews":[
		{
			"buffer":0,
			"byteLength":130176,
			"byteOffset":0,
			"target":34962
		},
		{
			"buffer":0,
			"byteLength":130176,
			"byteOffset":130176,
			"target":34962
		},
		{
			"buffer":0,
			"byteLength":86784,
			"byteOffset":260352,
			"target":34962
		},
		{
			"buffer":0,
			"byteLength":86784,
			"byteOffset":347136,
			"target":34962
		},
		{
			"buffer":0,
			"byteLength":73224,
			"byteOffset":433920,
			"target":34963
		},
		{
			"buffer":0,
			"byteLength":225888,
			"byteOffset":507144,
			"target":34962
		},
		{
			"buffer":0,
			"byteLength":225888,
			"byteOffset":733032,
			"target":34962
		},
		{
			"buffer":0,
			"byteLength":150592,
			"byteOffset":958920,
			"target":34962
		},
		{
			"buffer":0,
			"byteLength":150592,
			"byteOffset":1109512,
			"target":34962
		},
		{
			"buffer":0,
			"byteLength":119580,
			"byteOffset":1260104,
			"target":34963
		},
		{
			"buffer":0,
			"byteLength":1152,
			"byteOffset":1379684,
			"target":34962
		},
		{
			"buffer":0,
			"byteLength":1152,
			"byteOffset":1380836,
			"target":34962
		},
		{
			"buffer":0,
			"byteLength":768,
			"byteOffset":1381988,
			"target":34962
		},
		{
			"buffer":0,
			"byteLength":768,
			"byteOffset":1382756,
			"target":34962
		},
		{
			"buffer":0,
			"byteLength":648,
			"byteOffset":1383524,
			"target":34963
		},
		{
			"buffer":0,
			"byteLength":7056,
			"byteOffset":1384172,
			"target":34962
		},
		{
			"buffer":0,
			"byteLength":7056,
			"byteOffset":1391228,
			"target":34962
		},
		{
			"buffer":0,
			"byteLength":4704,
			"byteOffset":1398284,
			"target":34962
		},
		{
			"buffer":0,
			"byteLength":4704,
			"byteOffset":1402988,
			"target":34962
		},
		{
			"buffer":0,
			"byteLength":3312,
			"byteOffset":1407692,
			"target":34963
		}
	],
	"buffers":[
		{
			"byteLength":1411004,
			"uri":"stadium_tower.bin"
		}
	]
}
