{
	"asset":{
		"generator":"Khronos glTF Blender I/O v5.2.40",
		"version":"2.0"
	},
	"scene":0,
	"scenes":[
		{
			"name":"Scene",
			"nodes":[
				0
			]
		}
	],
	"nodes":[
		{
			"mesh":0,
			"name":"stands_open"
		}
	],
	"materials":[
		{
			"doubleSided":true,
			"name":"plank",
			"pbrMetallicRoughness":{
				"baseColorFactor":[
					0.800000011920929,
					0.800000011920929,
					0.800000011920929,
					1
				],
				"metallicFactor":0,
				"roughnessFactor":0.5
			}
		},
		{
			"doubleSided":true,
			"name":"timber",
			"pbrMetallicRoughness":{
				"baseColorFactor":[
					0.800000011920929,
					0.800000011920929,
					0.800000011920929,
					1
				],
				"metallicFactor":0,
				"roughnessFactor":0.5
			}
		},
		{
			"doubleSided":true,
			"name":"iron",
			"pbrMetallicRoughness":{
				"baseColorFactor":[
					0.800000011920929,
					0.800000011920929,
					0.800000011920929,
					1
				],
				"metallicFactor":0,
				"roughnessFactor":0.5
			}
		}
	],
	"meshes":[
		{
			"name":"t",
			"primitives":[
				{
					"attributes":{
						"POSITION":0,
						"NORMAL":1,
						"TEXCOORD_0":2,
						"COLOR_0":3
					},
					"indices":4,
					"material":0
				},
				{
					"attributes":{
						"POSITION":5,
						"NORMAL":6,
						"TEXCOORD_0":7,
						"COLOR_0":8
					},
					"indices":9,
					"material":1
				},
				{
					"attributes":{
						"POSITION":10,
						"NORMAL":11,
						"TEXCOORD_0":12,
						"COLOR_0":13
					},
					"indices":14,
					"material":2
				}
			]
		}
	],
	"accessors":[
		{
			"bufferView":0,
			"componentType":5126,
			"count":5952,
			"max":[
				52.13956069946289,
				25.30000114440918,
				-0.09999990463256836
			],
			"min":[
				-52.13956069946289,
				14.399999618530273,
				-16.799999237060547
			],
			"type":"VEC3"
		},
		{
			"bufferView":1,
			"componentType":5126,
			"count":5952,
			"type":"VEC3"
		},
		{
			"bufferView":2,
			"componentType":5126,
			"count":5952,
			"type":"VEC2"
		},
		{
			"bufferView":3,
			"componentType":5123,
			"count":5952,
			"normalized":true,
			"type":"VEC4"
		},
		{
			"bufferView":4,
			"componentType":5123,
			"count":20088,
			"type":"SCALAR"
		},
		{
			"bufferView":5,
			"componentType":5126,
			"count":65568,
			"max":[
				52.13956069946289,
				22.960203170776367,
				-0.04999998211860657
			],
			"min":[
				-52.13956069946289,
				-0.5999999046325684,
				-17.040000915527344
			],
			"type":"VEC3"
		},
		{
			"bufferView":6,
			"componentType":5126,
			"count":65568,
			"type":"VEC3"
		},
		{
			"bufferView":7,
			"componentType":5126,
			"count":65568,
			"type":"VEC2"
		},
		{
			"bufferView":8,
			"componentType":5123,
			"count":65568,
			"normalized":true,
			"type":"VEC4"
		},
		{
			"bufferView":9,
			"componentType":5125,
			"count":221292,
			"type":"SCALAR"
		},
		{
			"bufferView":10,
			"componentType":5126,
			"count":3520,
			"max":[
				45.0234375,
				10.071999549865723,
				-5.228000164031982
			],
			"min":[
				-45.042564392089844,
				4.927999973297119,
				-5.372000217437744
			],
			"type":"VEC3"
		},
		{
			"bufferView":11,
			"componentType":5126,
			"count":3520,
			"type":"VEC3"
		},
		{
			"bufferView":12,
			"componentType":5126,
			"count":3520,
			"type":"VEC2"
		},
		{
			"bufferView":13,
			"componentType":5123,
			"count":3520,
			"normalized":true,
			"type":"VEC4"
		},
		{
			"bufferView":14,
			"componentType":5123,
			"count":8832,
			"type":"SCALAR"
		}
	],
	"bufferViews":[
		{
			"buffer":0,
			"byteLength":71424,
			"byteOffset":0,
			"target":34962
		},
		{
			"buffer":0,
			"byteLength":71424,
			"byteOffset":71424,
			"target":34962
		},
		{
			"buffer":0,
			"byteLength":47616,
			"byteOffset":142848,
			"target":34962
		},
		{
			"buffer":0,
			"byteLength":47616,
			"byteOffset":190464,
			"target":34962
		},
		{
			"buffer":0,
			"byteLength":40176,
			"byteOffset":238080,
			"target":34963
		},
		{
			"buffer":0,
			"byteLength":786816,
			"byteOffset":278256,
			"target":34962
		},
		{
			"buffer":0,
			"byteLength":786816,
			"byteOffset":1065072,
			"target":34962
		},
		{
			"buffer":0,
			"byteLength":524544,
			"byteOffset":1851888,
			"target":34962
		},
		{
			"buffer":0,
			"byteLength":524544,
			"byteOffset":2376432,
			"target":34962
		},
		{
			"buffer":0,
			"byteLength":885168,
			"byteOffset":2900976,
			"target":34963
		},
		{
			"buffer":0,
			"byteLength":42240,
			"byteOffset":3786144,
			"target":34962
		},
		{
			"buffer":0,
			"byteLength":42240,
			"byteOffset":3828384,
			"target":34962
		},
		{
			"buffer":0,
			"byteLength":28160,
			"byteOffset":3870624,
			"target":34962
		},
		{
			"buffer":0,
			"byteLength":28160,
			"byteOffset":3898784,
			"target":34962
		},
		{
			"buffer":0,
			"byteLength":17664,
			"byteOffset":3926944,
			"target":34963
		}
	],
	"buffers":[
		{
			"byteLength":3944608,
			"uri":"stadium_stands_open.bin"
		}
	]
}
