{
	"asset":{
		"generator":"Khronos glTF Blender I/O v5.2.40",
		"version":"2.0"
	},
	"scene":0,
	"scenes":[
		{
			"name":"Scene",
			"nodes":[
				0
			]
		}
	],
	"nodes":[
		{
			"mesh":0,
			"name":"stands_canopy"
		}
	],
	"materials":[
		{
			"doubleSided":true,
			"name":"plank",
			"pbrMetallicRoughness":{
				"baseColorFactor":[
					0.800000011920929,
					0.800000011920929,
					0.800000011920929,
					1
				],
				"metallicFactor":0,
				"roughnessFactor":0.5
			}
		},
		{
			"doubleSided":true,
			"name":"timber",
			"pbrMetallicRoughness":{
				"baseColorFactor":[
					0.800000011920929,
					0.800000011920929,
					0.800000011920929,
					1
				],
				"metallicFactor":0,
				"roughnessFactor":0.5
			}
		},
		{
			"doubleSided":true,
			"name":"iron",
			"pbrMetallicRoughness":{
				"baseColorFactor":[
					0.800000011920929,
					0.800000011920929,
					0.800000011920929,
					1
				],
				"metallicFactor":0,
				"roughnessFactor":0.5
			}
		},
		{
			"doubleSided":true,
			"name":"canvas",
			"pbrMetallicRoughness":{
				"baseColorFactor":[
					0.800000011920929,
					0.800000011920929,
					0.800000011920929,
					1
				],
				"metallicFactor":0,
				"roughnessFactor":0.5
			}
		},
		{
			"doubleSided":true,
			"name":"shirt",
			"pbrMetallicRoughness":{
				"baseColorFactor":[
					0.800000011920929,
					0.800000011920929,
					0.800000011920929,
					1
				],
				"metallicFactor":0,
				"roughnessFactor":0.5
			}
		}
	],
	"meshes":[
		{
			"name":"t",
			"primitives":[
				{
					"attributes":{
						"POSITION":0,
						"NORMAL":1,
						"TEXCOORD_0":2,
						"COLOR_0":3
					},
					"indices":4,
					"material":0
				},
				{
					"attributes":{
						"POSITION":5,
						"NORMAL":6,
						"TEXCOORD_0":7,
						"COLOR_0":8
					},
					"indices":9,
					"material":1
				},
				{
					"attributes":{
						"POSITION":10,
						"NORMAL":11,
						"TEXCOORD_0":12,
						"COLOR_0":13
					},
					"indices":14,
					"material":2
				},
				{
					"attributes":{
						"POSITION":15,
						"NORMAL":16,
						"TEXCOORD_0":17,
						"COLOR_0":18
					},
					"indices":19,
					"material":3
				},
				{
					"attributes":{
						"POSITION":20,
						"NORMAL":21,
						"TEXCOORD_0":22,
						"COLOR_0":23
					},
					"indices":24,
					"material":4
				}
			]
		}
	],
	"accessors":[
		{
			"bufferView":0,
			"componentType":5126,
			"count":5952,
			"max":[
				52.13956069946289,
				25.30000114440918,
				-0.09999990463256836
			],
			"min":[
				-52.13956069946289,
				14.399999618530273,
				-16.799999237060547
			],
			"type":"VEC3"
		},
		{
			"bufferView":1,
			"componentType":5126,
			"count":5952,
			"type":"VEC3"
		},
		{
			"bufferView":2,
			"componentType":5126,
			"count":5952,
			"type":"VEC2"
		},
		{
			"bufferView":3,
			"componentType":5123,
			"count":5952,
			"normalized":true,
			"type":"VEC4"
		},
		{
			"bufferView":4,
			"componentType":5123,
			"count":20088,
			"type":"SCALAR"
		},
		{
			"bufferView":5,
			"componentType":5126,
			"count":69024,
			"max":[
				52.13956069946289,
				24.780000686645508,
				-0.04999998211860657
			],
			"min":[
				-52.13956069946289,
				-0.5999999046325684,
				-17.040000915527344
			],
			"type":"VEC3"
		},
		{
			"bufferView":6,
			"componentType":5126,
			"count":69024,
			"type":"VEC3"
		},
		{
			"bufferView":7,
			"componentType":5126,
			"count":69024,
			"type":"VEC2"
		},
		{
			"bufferView":8,
			"componentType":5123,
			"count":69024,
			"normalized":true,
			"type":"VEC4"
		},
		{
			"bufferView":9,
			"componentType":5125,
			"count":232956,
			"type":"SCALAR"
		},
		{
			"bufferView":10,
			"componentType":5126,
			"count":3520,
			"max":[
				45.0234375,
				10.071999549865723,
				-5.228000164031982
			],
			"min":[
				-45.042564392089844,
				4.927999973297119,
				-5.372000217437744
			],
			"type":"VEC3"
		},
		{
			"bufferView":11,
			"componentType":5126,
			"count":3520,
			"type":"VEC3"
		},
		{
			"bufferView":12,
			"componentType":5126,
			"count":3520,
			"type":"VEC2"
		},
		{
			"bufferView":13,
			"componentType":5123,
			"count":3520,
			"normalized":true,
			"type":"VEC4"
		},
		{
			"bufferView":14,
			"componentType":5123,
			"count":8832,
			"type":"SCALAR"
		},
		{
			"bufferView":15,
			"componentType":5126,
			"count":2178,
			"max":[
				27,
				24.700000762939453,
				-4.900000095367432
			],
			"min":[
				-27,
				22.799999237060547,
				-16.739999771118164
			],
			"type":"VEC3"
		},
		{
			"bufferView":16,
			"componentType":5126,
			"count":2178,
			"type":"VEC3"
		},
		{
			"bufferView":17,
			"componentType":5126,
			"count":2178,
			"type":"VEC2"
		},
		{
			"bufferView":18,
			"componentType":5123,
			"count":2178,
			"normalized":true,
			"type":"VEC4"
		},
		{
			"bufferView":19,
			"componentType":5123,
			"count":10800,
			"type":"SCALAR"
		},
		{
			"bufferView":20,
			"componentType":5126,
			"count":225,
			"max":[
				27,
				22.799999237060547,
				-5.139999866485596
			],
			"min":[
				-27,
				22.100000381469727,
				-5.159999847412109
			],
			"type":"VEC3"
		},
		{
			"bufferView":21,
			"componentType":5126,
			"count":225,
			"type":"VEC3"
		},
		{
			"bufferView":22,
			"componentType":5126,
			"count":225,
			"type":"VEC2"
		},
		{
			"bufferView":23,
			"componentType":5123,
			"count":225,
			"normalized":true,
			"type":"VEC4"
		},
		{
			"bufferView":24,
			"componentType":5123,
			"count":864,
			"type":"SCALAR"
		}
	],
	"bufferViews":[
		{
			"buffer":0,
			"byteLength":71424,
			"byteOffset":0,
			"target":34962
		},
		{
			"buffer":0,
			"byteLength":71424,
			"byteOffset":71424,
			"target":34962
		},
		{
			"buffer":0,
			"byteLength":47616,
			"byteOffset":142848,
			"target":34962
		},
		{
			"buffer":0,
			"byteLength":47616,
			"byteOffset":190464,
			"target":34962
		},
		{
			"buffer":0,
			"byteLength":40176,
			"byteOffset":238080,
			"target":34963
		},
		{
			"buffer":0,
			"byteLength":828288,
			"byteOffset":278256,
			"target":34962
		},
		{
			"buffer":0,
			"byteLength":828288,
			"byteOffset":1106544,
			"target":34962
		},
		{
			"buffer":0,
			"byteLength":552192,
			"byteOffset":1934832,
			"target":34962
		},
		{
			"buffer":0,
			"byteLength":552192,
			"byteOffset":2487024,
			"target":34962
		},
		{
			"buffer":0,
			"byteLength":931824,
			"byteOffset":3039216,
			"target":34963
		},
		{
			"buffer":0,
			"byteLength":42240,
			"byteOffset":3971040,
			"target":34962
		},
		{
			"buffer":0,
			"byteLength":42240,
			"byteOffset":4013280,
			"target":34962
		},
		{
			"buffer":0,
			"byteLength":28160,
			"byteOffset":4055520,
			"target":34962
		},
		{
			"buffer":0,
			"byteLength":28160,
			"byteOffset":4083680,
			"target":34962
		},
		{
			"buffer":0,
			"byteLength":17664,
			"byteOffset":4111840,
			"target":34963
		},
		{
			"buffer":0,
			"byteLength":26136,
			"byteOffset":4129504,
			"target":34962
		},
		{
			"buffer":0,
			"byteLength":26136,
			"byteOffset":4155640,
			"target":34962
		},
		{
			"buffer":0,
			"byteLength":17424,
			"byteOffset":4181776,
			"target":34962
		},
		{
			"buffer":0,
			"byteLength":17424,
			"byteOffset":4199200,
			"target":34962
		},
		{
			"buffer":0,
			"byteLength":21600,
			"byteOffset":4216624,
			"target":34963
		},
		{
			"buffer":0,
			"byteLength":2700,
			"byteOffset":4238224,
			"target":34962
		},
		{
			"buffer":0,
			"byteLength":2700,
			"byteOffset":4240924,
			"target":34962
		},
		{
			"buffer":0,
			"byteLength":1800,
			"byteOffset":4243624,
			"target":34962
		},
		{
			"buffer":0,
			"byteLength":1800,
			"byteOffset":4245424,
			"target":34962
		},
		{
			"buffer":0,
			"byteLength":1728,
			"byteOffset":4247224,
			"target":34963
		}
	],
	"buffers":[
		{
			"byteLength":4248952,
			"uri":"stadium_stands_canopy.bin"
		}
	]
}
